<?xml version="1.0" encoding="UTF-8"?>
<!DOCTYPE svg PUBLIC "-//W3C//DTD SVG 1.1//EN" "http://www.w3.org/Graphics/SVG/1.1/DTD/svg11.dtd">
<!-- Creator: CorelDRAW -->
<svg xmlns="http://www.w3.org/2000/svg" xml:space="preserve" width="90mm" height="90mm" version="1.1" style="shape-rendering:geometricPrecision; text-rendering:geometricPrecision; image-rendering:optimizeQuality; fill-rule:evenodd; clip-rule:evenodd"
viewBox="0 0 9000 9000"
 xmlns:xlink="http://www.w3.org/1999/xlink"
 xmlns:xodm="http://www.corel.com/coreldraw/odm/2003">
 <defs>
  <style type="text/css">
   <![CDATA[
    .fil0 {fill:#201E1E;fill-rule:nonzero}
   ]]>
  </style>
 </defs>
 <g id="Capa_x0020_1">
  <metadata id="CorelCorpID_0Corel-Layer"/>
  <path class="fil0" d="M1812.33 7240.92l5.2 -5.89c9.01,3.94 17.71,3.25 26.14,-2.05 8.42,-5.31 19.31,-15.54 32.67,-30.7l165.64 -187.9c13.37,-15.17 22.16,-27.26 26.37,-36.28 4.21,-9.02 3.79,-17.74 -1.25,-26.18l5.2 -5.9 105.32 92.84c30.33,26.74 51.98,53.56 64.95,80.47 12.97,26.9 19.39,52.89 19.24,77.97 -0.15,25.08 -4.72,48.38 -13.71,69.9 -8.99,21.52 -20.29,40.01 -33.91,55.46 -26.46,30.58 -56.09,51.88 -88.89,63.88 -32.8,12.01 -66.34,14.39 -100.62,7.14 -34.28,-7.26 -66.86,-24.51 -97.76,-51.75l-114.59 -101.01zm94.56 16.73c-8.66,9.83 -13.66,18.9 -15,27.2 -1.33,8.3 3.77,17.54 15.28,27.69l22.74 20.05c33.99,29.96 68.64,43.16 103.96,39.62 35.33,-3.55 72.8,-27.79 112.41,-72.73 25.5,-28.93 43.53,-59.57 54.09,-91.94 10.57,-32.37 11.8,-64.48 3.68,-96.33 -8.1,-31.85 -27.88,-61.64 -59.33,-89.37l-16.86 -14.86 -220.97 250.67zm227.22 257.16l4.73 -6.28c9.28,3.24 17.91,1.89 25.9,-4.04 8,-5.94 18.07,-16.98 30.24,-33.12l150.77 -200.02c12.17,-16.15 20,-28.87 23.51,-38.19 3.5,-9.32 2.42,-17.98 -3.25,-26.01l4.74 -6.28 83.41 62.88 -4.73 6.27c-9.28,-3.23 -17.92,-1.89 -25.91,4.04 -7.99,5.94 -18.07,16.98 -30.24,33.12l-150.77 200.03c-12.16,16.13 -20,28.86 -23.5,38.18 -3.51,9.31 -2.42,17.99 3.25,26.02l-4.73 6.27 -83.42 -62.87zm242.33 179.6c-24.07,-15.87 -44.21,-33.96 -60.41,-54.28 -16.2,-20.32 -27.36,-38.77 -33.46,-55.36l44.49 -71.57 6.71 3.08c-5.18,22.15 -6.76,44.09 -4.72,65.84 2.04,21.74 8.39,42.19 19.09,61.34 10.69,19.16 26.35,35.53 46.98,49.13 10.95,7.22 22.6,11.65 34.97,13.3 12.36,1.65 24.4,0.06 36.11,-4.78 11.71,-4.84 21.79,-13.67 30.24,-26.48 7.62,-11.57 10.99,-23.82 10.08,-36.74 -0.9,-12.93 -4.31,-25.95 -10.25,-39.05 -5.94,-13.11 -12.93,-25.79 -21,-38.05 -8.04,-12.27 -15.54,-23.36 -22.44,-33.29 -11.4,-17.39 -21.56,-33.95 -30.48,-49.68 -8.9,-15.75 -13.87,-31.69 -14.89,-47.82 -1.01,-16.15 4.45,-33.29 16.41,-51.42 19.16,-29.07 45.17,-44.89 78.02,-47.44 32.85,-2.57 67.72,8.31 104.61,32.62 17.51,11.55 32.7,24.03 45.6,37.46 12.89,13.44 23.38,27.3 31.45,41.59l-38.31 62.19 -6.39 -1.53c6.17,-30.46 4.18,-58.22 -5.97,-83.3 -10.15,-25.07 -26.64,-45.14 -49.46,-60.18 -18.76,-12.36 -38.07,-17.58 -57.95,-15.66 -19.87,1.92 -35.88,12.1 -48.04,30.54 -6.8,10.32 -10.15,21.01 -10.04,32.06 0.11,11.06 2.61,22.24 7.49,33.53 4.89,11.3 10.87,22.3 17.94,33.01 7.06,10.7 14.05,21.03 20.95,30.96 8.79,12.53 17.6,25.51 26.44,38.97 8.85,13.45 16.07,27.17 21.64,41.16 5.58,13.99 8.19,28.04 7.85,42.17 -0.34,14.12 -5.14,28.22 -14.41,42.29 -10.52,15.95 -23.17,28.01 -37.98,36.18 -14.81,8.17 -30.46,12.88 -46.97,14.11 -16.5,1.23 -32.92,-0.4 -49.25,-4.88 -16.32,-4.49 -31.21,-11.16 -44.65,-20.02zm163.21 97.98l3.74 -6.91c9.66,1.81 17.99,-0.81 25.01,-7.87 7.01,-7.07 15.32,-19.49 24.94,-37.27l119.16 -220.31c9.62,-17.79 15.47,-31.54 17.54,-41.28 2.07,-9.74 -0.3,-18.15 -7.1,-25.24l3.74 -6.91 237.11 128.24 -32.24 72.6 -7.22 -2c3.3,-29.71 -0.97,-53.51 -12.79,-71.4 -11.82,-17.89 -31.56,-34.3 -59.22,-49.27l-57.8 -31.26 -80.15 148.2 47.42 25.65c20.08,10.86 36.6,18.09 49.56,21.69 12.95,3.61 23.74,4.12 32.36,1.55 8.63,-2.58 16.58,-7.43 23.84,-14.57l6.92 3.75 -44.88 82.99 -6.93 -3.75c2,-9.98 1.72,-19.28 -0.86,-27.92 -2.56,-8.63 -8.89,-17.37 -19,-26.24 -10.11,-8.87 -25.2,-18.73 -45.28,-29.6l-47.43 -25.65 -80.69 149.18c-8.9,16.47 -5.12,29.15 11.34,38.06l47.43 25.65c25.03,13.54 48.59,20.32 70.7,20.37 22.12,0.03 44.56,-9.96 67.31,-30l5.89 4.46 -42.47 70.25 -249.95 -135.19zm579.22 283.71l-112.91 -408.86 -86.94 205.32c-8.9,21.03 -14.53,38.16 -16.89,51.4 -2.34,13.23 -1.83,24.02 1.54,32.36 3.39,8.34 8.98,15.79 16.77,22.35l-3.07 7.24 -69.29 -29.35 3.07 -7.23c9.78,0.88 17.83,-2.52 24.14,-10.22 6.31,-7.7 13.4,-20.85 21.28,-39.46l97.67 -230.66c7.89,-18.62 11.97,-33.05 12.24,-43.3 0.28,-10.26 -4.52,-19.09 -14.38,-26.53l3.07 -7.24 58.43 24.75 102.02 364 74.24 -175.32c8.91,-21.03 14.53,-38.16 16.88,-51.4 2.36,-13.23 1.84,-24.02 -1.54,-32.36 -3.39,-8.35 -8.97,-15.8 -16.76,-22.35l3.06 -7.24 69.82 29.56 -3.07 7.24c-9.78,-0.89 -17.83,2.52 -24.14,10.21 -6.31,7.7 -13.4,20.86 -21.29,39.48l-127.23 300.46 -6.72 -2.85zm-34.09 -479.77c30.05,-31.6 55.41,-43.01 76.1,-34.25 7.24,3.06 14.87,8.32 22.88,15.79 8.03,7.46 16.14,14.96 24.33,22.5 8.2,7.53 15.57,12.68 22.12,15.46 6.55,2.77 12.64,3.01 18.29,0.73 5.65,-2.29 12.88,-8.07 21.68,-17.35l4.52 3.74c-15.3,17.91 -29.72,30.11 -43.24,36.58 -13.52,6.47 -25.62,7.45 -36.31,2.92 -10.69,-4.52 -19.4,-10.34 -26.15,-17.47 -6.74,-7.12 -13.26,-14.05 -19.56,-20.78 -6.29,-6.74 -14.26,-12.14 -23.91,-16.23 -6.55,-2.77 -12.61,-3.1 -18.19,-0.99 -5.57,2.11 -11.66,6.64 -18.27,13.61l-4.29 -4.26zm85.13 496.59l2.34 -7.51c9.11,-0.3 18.61,-3.42 28.49,-9.36 9.89,-5.94 21.19,-16.74 33.9,-32.39l177.7 -217.62c7.05,-8.79 9.7,-18.55 7.95,-29.3l-2.3 -17.18 59.89 -7.24 34.38 358.31c2.05,19.85 5.28,34.98 9.7,45.37 4.41,10.39 9.21,17.95 14.4,22.71l-2.34 7.51 -97.59 -30.37 2.33 -7.51c9.83,-0.08 14.86,-4.59 15.1,-13.53 0.23,-8.95 -0.68,-23.35 -2.74,-43.21l-8.14 -87.22 -143.18 -44.56 -54.97 67.01c-12.71,15.65 -19.68,27.98 -20.93,37.01 -1.24,9.03 2.28,16 10.55,20.93l-2.34 7.5 -62.2 -19.35zm135.78 -120.68l136.2 42.38 -17.61 -187.22 -118.59 144.84zm550.49 305.06l-191.04 -378.71 -44.91 218.39c-4.6,22.37 -6.75,40.28 -6.46,53.72 0.3,13.44 2.93,23.91 7.87,31.43 4.96,7.51 11.9,13.72 20.83,18.62l-1.58 7.7 -73.71 -15.16 1.58 -7.7c9.77,-1.05 16.99,-5.97 21.67,-14.76 4.67,-8.79 9.04,-23.08 13.11,-42.87l50.45 -245.35c4.07,-19.81 5.24,-34.76 3.49,-44.87 -1.74,-10.11 -8.18,-17.83 -19.31,-23.18l1.58 -7.7 62.16 12.78 171.55 336.86 38.35 -186.49c4.6,-22.37 6.75,-40.27 6.45,-53.71 -0.29,-13.44 -2.92,-23.92 -7.87,-31.43 -4.96,-7.52 -11.9,-13.73 -20.83,-18.62l1.58 -7.7 74.27 15.27 -1.58 7.7c-9.78,1.05 -16.99,5.97 -21.67,14.75 -4.68,8.79 -9.04,23.09 -13.12,42.89l-65.71 319.61 -7.15 -1.47zm92.27 11.67l0.77 -7.82c9.6,-2.08 16.26,-7.73 19.99,-16.96 3.72,-9.23 6.56,-23.9 8.52,-44.02l24.32 -249.3c1.96,-20.12 2.01,-35.07 0.14,-44.84 -1.87,-9.78 -7.31,-16.61 -16.34,-20.51l0.77 -7.82 139.73 13.63c40.24,3.92 73.5,13 99.76,27.22 26.27,14.23 46.68,31.54 61.24,51.96 14.55,20.42 24.49,41.99 29.8,64.7 5.31,22.71 6.97,44.32 4.97,64.81 -3.56,40.28 -15.11,74.9 -34.68,103.83 -19.56,28.94 -45.37,50.5 -77.41,64.68 -32.04,14.18 -68.55,19.27 -109.55,15.27l-152.03 -14.83zm86.46 -41.78c-1.27,13.04 -0.01,23.32 3.76,30.83 3.78,7.51 13.32,12.02 28.6,13.51l30.17 2.94c45.1,4.4 80.92,-5.18 107.48,-28.73 26.56,-23.55 42.76,-65.14 48.57,-124.76 3.74,-38.38 0.43,-73.78 -9.96,-106.2 -10.38,-32.43 -28.17,-59.19 -53.4,-80.27 -25.21,-21.07 -58.69,-33.65 -100.42,-37.72l-22.36 -2.18 -32.44 332.58zm546.31 82.19c-23.96,0.48 -47.8,-3.05 -71.55,-10.62 -23.75,-7.57 -45.62,-19.49 -65.61,-35.75 -19.99,-16.27 -36.14,-37.09 -48.45,-62.5 -12.31,-25.4 -18.82,-55.7 -19.54,-90.88 -0.56,-27.7 3.78,-53.72 13.02,-78.06 9.24,-24.34 22.56,-45.78 39.97,-64.28 17.42,-18.52 38.38,-33.18 62.87,-43.97 24.5,-10.8 51.54,-16.5 81.1,-17.1 23.59,-0.48 47.36,3.16 71.29,10.92 23.93,7.74 45.8,19.75 65.6,36.01 19.81,16.26 35.87,37 48.18,62.22 12.3,25.21 18.81,55.04 19.51,89.48 0.69,34.06 -4.61,63.86 -15.88,89.36 -11.28,25.5 -26.58,46.69 -45.9,63.56 -19.31,16.87 -40.68,29.58 -64.1,38.1 -23.42,8.53 -46.93,13.03 -70.51,13.51zm-147.46 -235.19c2.44,28.04 8.7,55.16 18.79,81.36 10.08,26.19 23.01,49.52 38.78,69.98 15.77,20.47 33.98,36.67 54.62,48.62 20.66,11.93 42.96,17.66 66.93,17.17 28.82,-0.58 51.52,-7.51 68.1,-20.77 16.58,-13.25 28.13,-30.43 34.62,-51.54 6.5,-21.11 8.57,-43.98 6.2,-68.65 -2.86,-29.9 -9.05,-58.61 -18.6,-86.13 -9.55,-27.52 -22.13,-52.16 -37.74,-73.94 -15.61,-21.78 -33.65,-38.82 -54.12,-51.14 -20.48,-12.32 -42.88,-18.23 -67.2,-17.74 -25.46,0.52 -46.86,7.13 -64.21,19.85 -17.33,12.7 -29.98,30.47 -37.95,53.29 -7.96,22.81 -10.7,49.36 -8.22,79.64zm613.87 191.96l-1.21 -7.77c8.78,-4.41 13.82,-11.54 15.12,-21.41 1.3,-9.87 0.39,-24.79 -2.73,-44.76l-48.18 -307.95 -17.2 2.69c-24.79,3.88 -43.55,11.07 -56.31,21.6 -12.75,10.52 -22.57,27.68 -29.46,51.5l-6.83 -0.06 -7.18 -67.67 289.09 -45.22 13.83 66.62 -6.48 2.15c-13.83,-20.58 -28.43,-33.92 -43.79,-40.04 -15.36,-6.13 -35.43,-7.25 -60.2,-3.38l-16.1 2.52 48.18 307.95c3.12,19.97 6.8,34.46 11.05,43.46 4.26,9 11.23,14.25 20.94,15.77l1.22 7.77 -103.76 16.23zm423.85 -79.44c-19.58,5 -39.47,7.36 -59.63,7.1 -20.16,-0.28 -39.35,-4.37 -57.6,-12.27 -18.25,-7.91 -34.4,-20.5 -48.47,-37.78 -14.07,-17.28 -24.84,-40.61 -32.34,-70l-41.77 -163.8c-4.99,-19.59 -10.02,-33.66 -15.11,-42.22 -5.08,-8.56 -12.52,-13.13 -22.33,-13.73l-1.94 -7.62 101.22 -25.81 1.94 7.62c-8.33,5.22 -12.68,12.8 -13.04,22.75 -0.37,9.95 1.95,24.71 6.95,44.3l42.88 168.15c8.41,33.02 20.25,58.22 35.5,75.58 15.25,17.36 33.26,28.13 54.02,32.3 20.77,4.17 43.49,3.11 68.16,-3.18 11.61,-2.96 22.89,-8.34 33.84,-16.16 10.96,-7.82 20.33,-18.42 28.11,-31.8 7.8,-13.4 12.69,-29.8 14.69,-49.25 2,-19.45 -0.38,-42.41 -7.13,-68.89l-33.72 -132.24c-5.65,-22.13 -11.54,-39.18 -17.68,-51.13 -6.14,-11.96 -13.08,-20.24 -20.82,-24.83 -7.74,-4.6 -16.7,-7.14 -26.87,-7.64l-1.94 -7.62 72.92 -18.59 1.94 7.61c-8.33,5.22 -12.67,12.8 -13.03,22.75 -0.37,9.95 1.95,24.71 6.95,44.3l41.77 163.8c9.25,36.28 10.86,67.26 4.85,92.94 -6.01,25.69 -17.94,46.31 -35.8,61.88 -17.86,15.56 -40.04,26.73 -66.52,33.48zm338.7 -104.51c-27.14,9.71 -53.7,14.94 -79.68,15.69 -25.98,0.74 -47.43,-1.42 -64.36,-6.51l-30.49 -78.56 6.49 -3.51c14.59,17.44 31.19,31.89 49.8,43.32 18.61,11.43 38.77,18.63 60.51,21.59 21.74,2.96 44.24,0.27 67.5,-8.05 12.35,-4.42 22.89,-11.07 31.64,-19.97 8.74,-8.89 14.71,-19.47 17.87,-31.73 3.16,-12.28 2.16,-25.64 -3.01,-40.09 -4.67,-13.04 -12.44,-23.09 -23.32,-30.13 -10.87,-7.05 -23.33,-12.14 -37.37,-15.26 -14.05,-3.13 -28.39,-5.16 -43.03,-6.08 -14.64,-0.93 -28.01,-1.6 -40.1,-2.05 -20.75,-1.33 -40.1,-3.15 -58.03,-5.48 -17.93,-2.33 -33.66,-7.94 -47.17,-16.82 -13.52,-8.89 -23.94,-23.55 -31.26,-44 -11.73,-32.79 -8.75,-63.08 8.94,-90.88 17.69,-27.8 47.33,-49.14 88.93,-64.03 19.74,-7.06 38.85,-11.71 57.34,-13.95 18.48,-2.24 35.86,-2.3 52.13,-0.17l26.72 67.99 -5.07 4.19c-20.64,-23.23 -44.03,-38.32 -70.18,-45.26 -26.14,-6.95 -52.09,-5.83 -77.82,3.38 -21.15,7.57 -36.93,19.88 -47.33,36.93 -10.4,17.04 -11.89,35.95 -4.44,56.75 4.16,11.63 10.7,20.73 19.59,27.28 8.91,6.56 19.35,11.28 31.31,14.15 11.97,2.88 24.36,4.71 37.16,5.5 12.81,0.78 25.26,1.4 37.35,1.84 15.29,0.5 30.96,1.25 47.03,2.27 16.07,1 31.38,3.48 45.91,7.43 14.53,3.94 27.34,10.3 38.43,19.05 11.08,8.76 19.47,21.06 25.15,36.93 6.43,17.98 8.47,35.35 6.11,52.1 -2.36,16.74 -8,32.09 -16.94,46.02 -8.93,13.94 -20.09,26.08 -33.48,36.44 -13.39,10.36 -27.67,18.25 -42.83,23.68zm285.4 -115.44l-3.63 -6.98c6.93,-6.98 9.43,-15.34 7.52,-25.11 -1.91,-9.77 -7.52,-23.62 -16.84,-41.56l-99.94 -192.38c-10.53,-20.27 -20.05,-35.57 -28.59,-45.9 -8.53,-10.34 -16.76,-17.03 -24.67,-20.08 -7.92,-3.07 -16.39,-3.94 -25.42,-2.63l-3.62 -6.98 74.75 -38.83 229.25 140.38 10.97 -265.17 70.77 -36.77 3.63 6.98c-6.26,6.63 -10.42,14.07 -12.47,22.31 -2.05,8.23 -1.3,18.8 2.25,31.73 3.55,12.92 10.59,29.52 21.12,49.78l99.94 192.38c9.31,17.94 17.41,30.5 24.31,37.68 6.9,7.18 15.18,9.94 24.87,8.29l3.62 6.97 -92.68 48.15 -3.63 -6.97c6.92,-6.98 9.43,-15.35 7.52,-25.12 -1.91,-9.77 -7.52,-23.62 -16.84,-41.55l-125.31 -241.22 -10.62 271.95 -11.46 5.95 -231.76 -140.34 107.45 206.83c10.52,20.26 20.14,35.52 28.84,45.77 8.7,10.25 17.34,16.72 25.92,19.44 8.58,2.71 17.88,3.15 27.9,1.33l3.62 6.98 -66.77 34.69zm399.49 -210.53l-4.38 -6.52c5.47,-7.29 9,-16.65 10.57,-28.07 1.58,-11.43 0.25,-27 -3.96,-46.72l-58.02 -274.9c-2.42,-11 -8.36,-19.19 -17.83,-24.56l-14.82 -8.98 31.93 -51.19 300.61 197.97c16.75,10.86 30.56,17.83 41.42,20.91 10.86,3.08 19.76,4.09 26.72,3.03l4.38 6.53 -84.86 56.95 -4.38 -6.52c6.1,-7.71 5.74,-14.45 -1.08,-20.25 -6.82,-5.79 -18.6,-14.12 -35.36,-24.97l-73.05 -48.37 -124.5 83.56 17.7 84.84c4.21,19.72 9.45,32.89 15.7,39.52 6.25,6.63 13.89,8.26 22.91,4.91l4.38 6.53 -54.08 36.3zm-8.82 -181.44l118.43 -79.49 -156.85 -103.72 38.42 183.21zm582.79 -237.46l-414.77 -88.76 141.92 171.96c14.54,17.62 27.13,30.52 37.78,38.73 10.66,8.19 20.46,12.72 29.42,13.58 8.96,0.85 18.15,-0.66 27.56,-4.54l5 6.06 -58.03 47.9 -5 -6.06c5.3,-8.27 6,-16.98 2.09,-26.13 -3.91,-9.16 -12.3,-21.53 -25.17,-37.11l-159.43 -193.19c-12.88,-15.59 -23.79,-25.88 -32.76,-30.85 -8.96,-4.99 -19.02,-4.82 -30.17,0.49l-5 -6.06 48.94 -40.4 369.96 77.69 -121.18 -146.83c-14.54,-17.62 -27.14,-30.52 -37.79,-38.72 -10.65,-8.21 -20.45,-12.73 -29.42,-13.58 -8.96,-0.86 -18.15,0.65 -27.56,4.53l-5.01 -6.06 58.48 -48.26 5 6.06c-5.31,8.27 -6.01,16.98 -2.09,26.13 3.91,9.16 12.3,21.53 25.17,37.12l207.69 251.65 -5.63 4.65zm215.18 -207.87c-16.65,17.23 -36.06,31.53 -58.25,42.89 -22.18,11.36 -46.09,18.32 -71.74,20.87 -25.64,2.54 -51.78,-0.85 -78.41,-10.2 -26.64,-9.35 -52.61,-26.25 -77.91,-50.71 -19.92,-19.26 -35.17,-40.78 -45.77,-64.56 -10.6,-23.78 -16.25,-48.38 -16.94,-73.78 -0.69,-25.41 3.85,-50.58 13.62,-75.5 9.77,-24.92 24.94,-48.02 45.49,-69.28 16.4,-16.96 35.83,-31.13 58.27,-42.49 22.44,-11.37 46.42,-18.26 71.93,-20.68 25.51,-2.42 51.52,0.97 78.02,10.19 26.5,9.22 52.14,25.8 76.9,49.74 24.5,23.69 41.74,48.56 51.71,74.6 9.97,26.04 14.04,51.85 12.23,77.44 -1.82,25.58 -8.03,49.65 -18.64,72.2 -10.6,22.56 -24.11,42.31 -40.51,59.27zm-270.35 -62.95c21.49,18.17 45.04,33 70.66,44.48 25.61,11.48 51.22,18.92 76.83,22.33 25.61,3.41 49.95,2.07 73.02,-4 23.06,-6.09 42.92,-17.74 59.58,-34.98 20.04,-20.73 31.26,-41.63 33.69,-62.72 2.42,-21.1 -1.49,-41.42 -11.76,-60.97 -10.26,-19.56 -24.92,-37.25 -43.98,-53.08 -23.1,-19.2 -47.72,-35.2 -73.89,-48 -26.17,-12.8 -52.46,-21.42 -78.88,-25.87 -26.42,-4.45 -51.24,-3.83 -74.44,1.86 -23.21,5.69 -43.27,17.28 -60.19,34.77 -17.69,18.3 -28.21,38.08 -31.56,59.32 -3.35,21.23 0.2,42.76 10.62,64.56 10.44,21.8 27.19,42.56 50.3,62.3zm537.11 -243.87c-17.78,22.7 -37.45,41.29 -59.02,55.78 -21.58,14.49 -40.88,24.1 -57.91,28.83l-67.7 -50.18 3.62 -6.44c21.64,6.98 43.39,10.34 65.23,10.08 21.84,-0.26 42.73,-4.92 62.7,-14.02 19.96,-9.09 37.56,-23.37 52.8,-42.82 8.08,-10.32 13.45,-21.57 16.1,-33.76 2.65,-12.19 2.05,-24.32 -1.81,-36.38 -3.88,-12.07 -11.85,-22.84 -23.94,-32.3 -10.9,-8.54 -22.83,-12.9 -35.79,-13.05 -12.95,-0.16 -26.21,2.18 -39.75,7.04 -13.55,4.84 -26.76,10.78 -39.64,17.81 -12.88,7.02 -24.55,13.58 -35.01,19.66 -18.26,9.94 -35.6,18.72 -52,26.32 -16.42,7.59 -32.72,11.24 -48.88,10.94 -16.17,-0.31 -32.81,-7.16 -49.91,-20.55 -27.41,-21.47 -41.05,-48.68 -40.92,-81.63 0.13,-32.95 13.82,-66.82 41.06,-101.6 12.93,-16.51 26.61,-30.64 41.05,-42.39 14.45,-11.76 29.11,-21.08 44.01,-27.95l58.87 43.25 -2.05 6.25c-29.86,-8.64 -57.68,-8.92 -83.51,-0.85 -25.81,8.07 -47.16,22.86 -64.01,44.38 -13.86,17.69 -20.64,36.51 -20.34,56.49 0.29,19.95 9.13,36.75 26.52,50.37 9.72,7.61 20.11,11.82 31.13,12.62 11.03,0.79 22.38,-0.79 34.03,-4.73 11.66,-3.96 23.12,-9.02 34.36,-15.19 11.25,-6.16 22.11,-12.28 32.57,-18.36 13.2,-7.73 26.86,-15.46 40.99,-23.17 14.13,-7.72 28.4,-13.79 42.8,-18.21 14.39,-4.41 28.62,-5.87 42.66,-4.38 14.05,1.49 27.71,7.43 40.98,17.82 15.03,11.78 26.02,25.38 32.96,40.8 6.93,15.42 10.35,31.41 10.23,47.97 -0.12,16.54 -3.09,32.77 -8.88,48.68 -5.8,15.9 -13.67,30.2 -23.6,42.87zm-5415.08 -4446.31l-6.71 -7.14c5.26,-10.07 7.7,-22.3 7.33,-36.67 -0.38,-14.37 -5.16,-33.26 -14.35,-56.66l-127.07 -326.34c-5.21,-13.04 -14.19,-21.91 -26.92,-26.59l-20.05 -8.05 28.9 -69.43 409.85 182.57c22.82,9.94 41.21,15.72 55.19,17.3 13.98,1.59 25.15,1.03 33.48,-1.68l6.71 7.14 -92.83 87.26 -6.72 -7.14c5.95,-10.71 4.13,-18.94 -5.42,-24.68 -9.56,-5.75 -25.75,-13.6 -48.55,-23.55l-99.66 -44.69 -136.19 128.01 38.97 100.76c9.19,23.4 18.29,38.54 27.32,45.42 9.04,6.88 18.76,7.35 29.18,1.4l6.72 7.14 -59.18 55.62zm-47.62 -221.37l129.56 -121.78 -213.94 -95.78 84.38 217.56zm687.29 -305.56c-15.51,11.2 -30.44,16.64 -44.76,16.33 -14.32,-0.31 -30.18,-5.13 -47.55,-14.46 -17.38,-9.34 -38.53,-21.7 -63.46,-37.1 -23.35,-14.8 -42.97,-27.25 -58.89,-37.35 -15.92,-10.1 -29.6,-17.5 -41.04,-22.19 -11.44,-4.69 -22.31,-6.2 -32.61,-4.52 -10.3,1.67 -21.69,7.02 -34.19,16.03l-33.49 24.17 95.02 131.7c14.75,20.45 27.03,34.47 36.83,42.07 9.8,7.6 20.52,9.51 32.17,5.71l5.73 7.94 -105.59 76.19 -5.74 -7.95c7.29,-9.85 8.86,-20.63 4.73,-32.32 -4.11,-11.71 -13.55,-27.78 -28.3,-48.22l-182.68 -253.2c-14.75,-20.44 -27.03,-34.46 -36.83,-42.06 -9.81,-7.6 -20.53,-9.51 -32.17,-5.7l-5.74 -7.95 119.23 -86.02c31.03,-22.39 58.14,-38.07 81.31,-47.02 23.18,-8.95 43.14,-13 59.88,-12.13 16.75,0.87 31.16,5.29 43.24,13.27 12.08,7.97 22.22,17.64 30.41,28.99 18.84,26.11 25.73,54.8 20.68,86.08 -5.06,31.28 -24.88,62.84 -59.45,94.69 17.26,-9.58 32.74,-15.85 46.42,-18.82 13.68,-2.96 27.28,-2.85 40.81,0.34 13.53,3.18 28.03,9.12 43.51,17.82 15.48,8.68 33.83,19.76 55.04,33.22 28.24,17.6 49.85,30.8 64.81,39.57 14.96,8.78 26.47,13.56 34.53,14.36 8.06,0.81 15.5,-1.26 22.32,-6.17 1.51,-1.1 2.93,-2.12 4.25,-3.07 1.33,-0.96 2.61,-2.17 3.85,-3.64l5.74 7.94c-5.34,6.16 -11.79,12.39 -19.33,18.7 -7.54,6.3 -13.76,11.22 -18.69,14.77zm-362.55 -68.18l36.34 -26.21c21.57,-15.57 36.3,-31.65 44.16,-48.27 7.87,-16.61 10.3,-33.18 7.29,-49.71 -3.01,-16.53 -9.71,-32 -20.08,-46.38 -11.19,-15.51 -25.45,-28.1 -42.78,-37.75 -17.33,-9.66 -36.78,-13.9 -58.37,-12.71 -21.59,1.18 -44.3,10.38 -68.15,27.59 -7.95,5.73 -15.87,12.31 -23.75,19.72l125.34 173.72zm492.37 -12.04l-4.74 -8.58c8.42,-8.9 11.28,-19.41 8.6,-31.52 -2.69,-12.11 -10.11,-29.2 -22.29,-51.27l-187.67 -340.2 -19 10.48c-27.38,15.1 -46.3,31.54 -56.76,49.3 -10.46,17.76 -14.64,42.05 -12.56,72.89l-8.03 2.83 -37.24 -76.2 319.36 -176.18 44.6 72.15 -6.68 5.28c-24.98,-18.21 -47.76,-27.63 -68.35,-28.26 -20.6,-0.63 -44.6,6.61 -71.98,21.72l-17.77 9.8 187.67 340.2c12.18,22.08 22.67,37.47 31.48,46.2 8.82,8.73 19.23,11.92 31.25,9.55l4.73 8.58 -114.62 63.23zm291.71 -143.25c-10.21,4.6 -20.77,4.75 -31.67,0.45 -10.9,-4.3 -18.74,-11.77 -23.53,-22.41 -4.8,-10.64 -5.15,-21.35 -1.05,-32.16 4.09,-10.8 11.24,-18.51 21.45,-23.11 10.21,-4.61 20.62,-4.81 31.21,-0.62 10.58,4.19 18.27,11.6 23.07,22.24 4.79,10.64 5.29,21.41 1.51,32.33 -3.78,10.92 -10.78,18.68 -20.99,23.28zm324.32 -123.35c-28.4,9.28 -58.12,13.71 -89.19,13.31 -31.06,-0.4 -61.46,-6.66 -91.2,-18.79 -29.74,-12.13 -56.57,-31.11 -80.48,-56.93 -23.9,-25.82 -42.67,-59.58 -56.3,-101.28 -10.73,-32.83 -15,-65.44 -12.82,-97.82 2.19,-32.38 10.29,-62.77 24.34,-91.17 14.04,-28.41 33.7,-53.49 58.99,-75.26 25.3,-21.77 55.46,-38.38 90.5,-49.83 27.96,-9.14 57.61,-13.43 88.96,-12.88 31.37,0.56 61.81,6.94 91.33,19.14 29.52,12.2 56.19,31.1 80.02,56.69 23.84,25.59 42.43,58.8 55.77,99.62 13.19,40.37 17.69,77.8 13.5,112.32 -4.19,34.51 -14.73,65.33 -31.64,92.47 -16.91,27.12 -37.78,50.03 -62.61,68.7 -24.83,18.67 -51.22,32.57 -79.17,41.71zm-261.23 -226.9c13.09,32.55 30.41,62.61 51.94,90.19 21.53,27.58 45.42,50.7 71.65,69.38 26.24,18.67 53.84,31.37 82.8,38.12 28.95,6.74 57.64,5.46 86.03,-3.82 34.15,-11.16 58.71,-27.66 73.67,-49.48 14.97,-21.84 22.49,-46.52 22.58,-74.04 0.08,-27.52 -5.77,-55.56 -17.55,-84.12 -14.26,-34.61 -32.08,-66.6 -53.45,-95.94 -21.38,-29.35 -45.33,-54.18 -71.86,-74.48 -26.52,-20.3 -54.22,-34.08 -83.1,-41.33 -28.88,-7.26 -57.74,-6.17 -86.58,3.26 -30.16,9.85 -53.28,25.51 -69.35,46.96 -16.06,21.46 -24.7,47.23 -25.91,77.34 -1.21,30.09 5.17,62.75 19.13,97.96zm808.71 99.52c-54.88,8.56 -103.83,6.62 -146.87,-5.8 -43.03,-12.42 -78.05,-34.82 -105.07,-67.21 -27.01,-32.4 -44.55,-74.43 -52.6,-126.07 -5.46,-35.05 -4.01,-68.93 4.35,-101.64 8.37,-32.72 23.05,-62.76 44.05,-90.12 21.01,-27.37 47.63,-50.42 79.9,-69.14 32.27,-18.73 69.63,-31.4 112.05,-38.02 17.07,-2.66 35.8,-4.4 56.22,-5.22 20.42,-0.83 40.11,-0.23 59.08,1.77 18.97,2 35.11,6.22 48.39,12.65l17 90.87 -7.98 3.37c-12.96,-22.54 -29.74,-40.82 -50.36,-54.85 -20.61,-14.03 -42.82,-23.92 -66.61,-29.65 -23.8,-5.73 -47.69,-6.73 -71.67,-2.99 -36.89,5.75 -68.26,18.91 -94.11,39.47 -25.84,20.55 -44.41,47.66 -55.69,81.3 -11.28,33.64 -13.34,73.53 -6.15,119.64 5.18,33.2 15.02,64.5 29.52,93.88 14.5,29.39 32.75,54.76 54.73,76.14 22,21.37 47.35,37.02 76.05,46.95 28.7,9.92 59.9,12.27 93.56,7.02 38.73,-6.04 69.55,-21.95 92.45,-47.71 22.92,-25.78 37.79,-57.62 44.63,-95.53l9.21 -0.02 4.35 100.64c-17.15,11.18 -38.91,22.36 -65.27,33.56 -26.36,11.19 -60.75,20.1 -103.16,26.71zm578.55 -35.71c-19.13,0.27 -34.48,-3.84 -46.03,-12.3 -11.55,-8.47 -21.78,-21.52 -30.66,-39.12 -8.88,-17.62 -19.11,-39.88 -30.7,-66.79 -10.64,-25.52 -19.57,-46.97 -26.82,-64.37 -7.25,-17.41 -14.21,-31.31 -20.89,-41.72 -6.68,-10.41 -14.73,-17.87 -24.12,-22.41 -9.4,-4.54 -21.8,-6.69 -37.21,-6.47l-41.29 0.58 2.3 162.39c0.35,25.21 2.37,43.73 6.03,55.58 3.67,11.85 11.36,19.56 23.08,23.13l0.14 9.8 -130.18 1.84 -0.14 -9.8c11.61,-3.89 19.08,-11.82 22.41,-23.77 3.34,-11.94 4.83,-30.52 4.47,-55.73l-4.42 -312.18c-0.35,-25.21 -2.37,-43.74 -6.05,-55.58 -3.66,-11.85 -11.35,-19.57 -23.07,-23.13l-0.14 -9.8 146.99 -2.08c38.27,-0.54 69.46,2.17 93.58,8.12 24.12,5.96 42.79,14.1 56.01,24.41 13.21,10.32 22.48,22.21 27.81,35.67 5.32,13.46 8.08,27.19 8.28,41.19 0.46,32.2 -10.36,59.65 -32.44,82.38 -22.08,22.71 -56.42,37.2 -103,43.46 19.63,2.05 35.9,5.79 48.81,11.21 12.91,5.42 23.99,13.31 33.24,23.68 9.26,10.37 17.73,23.55 25.42,39.56 7.7,15.99 16.38,35.59 26.04,58.78 13.03,30.62 23.16,53.82 30.39,69.59 7.22,15.77 13.9,26.29 20.05,31.57 6.14,5.28 13.42,7.86 21.82,7.74 1.87,-0.02 3.62,-0.05 5.25,-0.07 1.63,-0.03 3.37,-0.28 5.24,-0.78l0.14 9.8c-7.91,1.98 -16.76,3.39 -26.56,4.23 -9.79,0.84 -17.71,1.3 -23.78,1.39zm-257.88 -263.8l44.8 -0.63c26.6,-0.38 47.89,-5.11 63.86,-14.21 15.97,-9.1 27.47,-21.27 34.48,-36.54 7.02,-15.27 10.41,-31.78 10.15,-49.51 -0.27,-19.13 -4.73,-37.62 -13.38,-55.47 -8.66,-17.85 -22.16,-32.48 -40.53,-43.89 -18.36,-11.41 -42.24,-16.9 -71.65,-16.48 -9.8,0.14 -20.06,0.98 -30.77,2.53l3.04 214.2zm263.45 254.85l1.13 -9.73c11.09,-2.48 22,-8.5 32.74,-18.06 10.74,-9.56 22.09,-25.4 34.04,-47.51l167.4 -307.61c6.61,-12.39 7.59,-24.97 2.95,-37.72l-6.78 -20.52 71.69 -22.7 124.88 430.95c7.12,23.84 14.57,41.63 22.38,53.33 7.81,11.71 15.44,19.88 22.88,24.5l-1.12 9.73 -126.57 -14.65 1.13 -9.73c12.02,-2.37 17.14,-9.06 15.36,-20.07 -1.78,-11.01 -6.22,-28.44 -13.33,-52.29l-30.13 -104.97 -185.67 -21.5 -51.86 94.78c-11.95,22.11 -17.65,38.84 -17.08,50.18 0.57,11.34 6.49,19.07 17.76,23.19l-1.13 9.74 -80.67 -9.34zm138.44 -179.19l176.63 20.45 -64.83 -225.26 -111.8 204.81zm383.35 257.45c-10.97,-2.27 -19.6,-8.35 -25.89,-18.24 -6.3,-9.88 -8.26,-20.53 -5.89,-31.96 2.38,-11.42 8.38,-20.3 18.04,-26.64 9.66,-6.34 19.98,-8.38 30.95,-6.1 10.96,2.27 19.5,8.22 25.61,17.83 6.1,9.61 7.98,20.12 5.61,31.55 -2.37,11.43 -8.3,20.44 -17.77,27.05 -9.47,6.62 -19.69,8.79 -30.66,6.51zm446.89 122.89l-193.27 -492.13 -81.01 265.85c-8.3,27.23 -13.04,49.21 -14.23,65.92 -1.19,16.71 0.86,30.03 6.13,39.92 5.27,9.9 13.18,18.41 23.69,25.52l-2.86 9.37 -89.73 -27.34 2.86 -9.38c12.25,-0.16 21.78,-5.43 28.59,-15.8 6.83,-10.36 13.91,-27.59 21.26,-51.71l91.01 -298.66c7.34,-24.11 10.51,-42.54 9.51,-55.29 -0.99,-12.74 -8.09,-23.08 -21.28,-31l2.85 -9.37 75.68 23.06 173.92 437.94 69.17 -227.01c8.3,-27.24 13.04,-49.21 14.23,-65.92 1.2,-16.72 -0.85,-30.03 -6.13,-39.93 -5.27,-9.9 -13.17,-18.41 -23.69,-25.51l2.86 -9.38 90.41 27.55 -2.86 9.38c-12.25,0.16 -21.78,5.43 -28.61,15.79 -6.81,10.37 -13.9,27.6 -21.24,51.72l-118.56 389.06 -8.7 -2.65zm24.57 -1.54l4.08 -8.91c11.31,1.08 23.56,-1.27 36.73,-7.04 13.17,-5.76 28.86,-17.32 47.06,-34.65l254.33 -240.75c10.12,-9.74 14.95,-21.4 14.48,-34.96l-0.11 -21.61 75.21 0.59 -14.54 448.44c-0.61,24.88 0.98,44.1 4.78,57.64 3.81,13.55 8.53,23.68 14.19,30.37l-4.08 8.91 -115.83 -53.08 4.08 -8.91c12.17,1.48 19.1,-3.31 20.82,-14.33 1.71,-11.01 2.88,-28.97 3.5,-53.84l3.8 -109.15 -169.91 -77.87 -78.63 74.09c-18.2,17.33 -28.8,31.47 -31.76,42.44 -2.97,10.96 0.27,20.14 9.71,27.55l-4.08 8.91 -73.83 -33.84zm187.07 -127.58l161.65 74.08 8.02 -234.27 -169.67 160.19zm245.9 335.11l4.9 -8.48c11.97,2.61 22.45,-0.36 31.44,-8.91 9,-8.55 19.8,-23.73 32.42,-45.55l156.34 -270.26c12.62,-21.82 20.4,-38.75 23.32,-50.81 2.93,-12.05 0.28,-22.62 -7.95,-31.69l4.9 -8.48 112.71 65.2 -4.9 8.48c-11.97,-2.62 -22.45,0.36 -31.44,8.91 -8.99,8.54 -19.79,23.72 -32.41,45.55l-156.34 270.26c-12.62,21.82 -20.4,38.75 -23.32,50.8 -2.93,12.06 -0.29,22.62 7.95,31.69l-4.91 8.49 -112.71 -65.2zm157.32 88.75l5.61 -8.03c11.7,3.62 22.39,1.55 32.07,-6.21 9.69,-7.74 21.75,-21.95 36.18,-42.62l178.74 -256c14.43,-20.67 23.61,-36.88 27.55,-48.65 3.94,-11.76 2.2,-22.51 -5.23,-32.25l5.61 -8.03 106.76 74.54 -5.61 8.03c-11.7,-3.62 -22.39,-1.55 -32.08,6.21 -9.68,7.75 -21.73,21.96 -36.16,42.63l-202.39 289.87c-13.36,19.13 -10.47,35.38 8.66,48.73l47.07 32.87c29.09,20.3 55.02,31.86 77.81,34.68 22.79,2.83 48.48,-4 77.06,-20.48l6.66 6.36 -55.09 69.12 -273.22 -190.77zm417.69 326.16c-26.96,-23.77 -48.67,-49.6 -65.14,-77.5 -16.47,-27.89 -27.04,-52.61 -31.69,-74.14l67.34 -80.61 7.76 4.96c-10.24,26.44 -16,53.25 -17.27,80.45 -1.26,27.19 3.04,53.54 12.91,79.04 9.87,25.5 26.36,48.44 49.47,68.81 12.24,10.8 25.86,18.3 40.84,22.48 14.97,4.18 30.1,4.31 45.4,0.37 15.3,-3.94 29.28,-13.08 41.93,-27.43 11.42,-12.96 17.7,-27.49 18.83,-43.6 1.13,-16.1 -0.82,-32.76 -5.87,-49.97 -5.05,-17.21 -11.47,-34.09 -19.29,-50.62 -7.82,-16.53 -15.13,-31.53 -21.93,-45 -11.06,-23.44 -20.73,-45.64 -28.99,-66.62 -8.26,-20.98 -11.62,-41.51 -10.08,-61.61 1.56,-20.11 11.27,-40.31 29.18,-60.62 28.71,-32.56 63.56,-47.56 104.55,-45.01 41,2.55 82.15,22.04 123.46,58.46 19.6,17.28 36.19,35.34 49.78,54.15 13.58,18.82 24.11,37.76 31.59,56.79l-58.08 70.12 -7.63 -2.99c12.91,-36.53 15.29,-71.15 7.11,-103.87 -8.18,-32.71 -25.04,-60.33 -50.59,-82.87 -21.01,-18.52 -43.95,-28.31 -68.81,-29.4 -24.87,-1.09 -46.41,8.7 -64.62,29.36 -10.19,11.55 -16.17,24.17 -17.96,37.83 -1.78,13.67 -0.64,27.9 3.43,42.69 4.07,14.78 9.54,29.4 16.39,43.86 6.87,14.45 13.7,28.4 20.49,41.86 8.67,16.98 17.3,34.55 25.88,52.68 8.58,18.14 15.1,36.33 19.55,54.57 4.46,18.24 5.25,36.05 2.37,53.43 -2.88,17.37 -11.26,33.93 -25.15,49.68 -15.74,17.86 -33.46,30.55 -53.16,38.07 -19.7,7.52 -39.84,10.6 -60.43,9.25 -20.58,-1.35 -40.56,-6.21 -59.93,-14.59 -19.37,-8.37 -36.58,-19.18 -51.64,-32.46zm-2096.27 1049.68c-52,0 -94.3,-42.3 -94.3,-94.26 0,-52.04 42.3,-94.3 94.3,-94.3 38.38,0 -22.54,-44.13 -79.9,-44.13 -76.35,0 -138.42,62.09 -138.42,138.43 0,76.3 62.07,138.39 138.42,138.39 56.76,0 118.56,-44.13 79.9,-44.13zm97.9 -1558.01c-3.36,-3.88 -8.75,-5.18 -13.48,-3.28 -9.52,3.88 -7.02,12.67 -7.02,22.86 0,99.49 -80.89,180.41 -180.38,180.41 -99.44,0 -180.4,-80.92 -180.4,-180.41 0,-10.23 2.54,-18.98 -6.98,-22.86 -4.73,-1.9 -10.16,-0.6 -13.44,3.28 -146.76,170.71 -25.51,437.31 200.82,437.31 226.1,0 347.81,-266.35 200.88,-437.31zm-200.88 1782.13c-69.56,0 -69.67,-105.34 0,-105.34 69.61,0 69.68,105.34 0,105.34zm-1581.74 2938.03c35.99,-16.02 862.3,-400.93 1045.36,-551.92 178.33,-119.13 208.03,-298.84 286.66,-589.07 177.12,-653.94 151.83,-628.16 164.07,-734.24 19.26,7.94 28.93,18.24 40.29,72.75 -63.22,-54.93 -26.14,85.48 -113.38,457.59 -10.83,46.07 -25.96,94.4 -28.61,141.74 -0.17,3.25 4.56,4.48 6,1.66 49.07,-94.19 119.48,-477.34 113.62,-593.09 17.18,3.39 35.28,63.85 37.15,140.86 4.37,179.14 12.52,100.55 -26.42,89.33 -15.24,-6.46 -15.74,8.04 -16.76,12.34 -0.99,4.17 -80.67,459.92 -60.56,409.51 41.19,-103.22 76.4,-396.28 76.57,-400.44 64.63,52 15.28,463.69 35.11,714.06 -32.85,261.94 -23.99,180.76 -646.25,724.6 -274.71,240.07 -444.11,394.66 -587.62,494.49 -124.78,86.75 -463.58,273.79 -551.5,144.64 -31.08,-45.65 -78.24,-399.06 226.27,-534.81zm3371.6 534.81c-87.91,129.15 -426.76,-57.89 -551.53,-144.64 -143.55,-99.83 -312.88,-254.42 -587.63,-494.49 -622.26,-543.84 -613.37,-462.66 -646.22,-724.6 19.8,-250.37 -29.56,-662.06 35.14,-714.06 0.14,4.16 35.31,297.22 76.55,400.44 20.11,50.41 -59.62,-405.34 -60.6,-409.51 -1.03,-4.3 -1.48,-18.8 -16.76,-12.34 -38.91,11.22 -30.76,89.81 -26.42,-89.33 1.9,-77.01 19.96,-137.47 37.18,-140.86 -5.89,115.75 64.52,498.9 113.56,593.09 1.52,2.82 6.21,1.59 6.03,-1.66 -2.64,-47.34 -17.78,-95.67 -28.61,-141.74 -87.24,-372.11 -50.16,-512.52 -113.35,-457.59 11.36,-54.51 29.28,-73.77 48.55,-81.67 28.92,129.43 35.77,308.5 155.82,743.16 79.97,289.88 108.27,469.94 286.67,589.07 183.05,150.99 1009.36,535.9 1045.35,551.92 119.2,53.16 174.97,123.61 222.95,241.26 39.87,97.62 27.62,257.85 3.32,293.55zm-1563.3 -2750.21c0,0 -11.04,78.53 23.49,304.05 16.9,109.96 52.04,178.08 159.85,265.54 132.54,107.49 277.77,155.68 479.42,223.62 223.7,75.39 221.12,17.75 359.41,192.94 268.54,506.44 345.72,820.24 504.65,1344.93 -91.23,-142.49 -191.7,-132.86 -825.78,-464.08 -235.8,-123.09 -489.41,-245.75 -559.3,-443.09 -5.82,-16.44 -236.04,-791.78 -267.79,-1077.53 -5.93,-53.58 -15.38,-51.15 -37.18,-45.43 -63.18,14.46 -71.55,123.19 -72.43,175.86 -0.84,-52.67 -5.08,-142.74 -68.29,-157.31 -21.81,-5.71 -25.93,-9.49 -31.9,44.1 -31.74,285.75 -271.38,1043.9 -277.16,1060.31 -69.89,197.34 -323.54,320 -559.33,443.09 -634.09,331.22 -734.56,321.59 -825.75,464.08 158.93,-524.69 236.08,-838.49 504.65,-1344.93 138.25,-175.19 135.68,-117.55 359.37,-192.94 201.69,-67.94 346.93,-116.13 479.43,-223.62 107.81,-87.46 142.98,-155.58 159.84,-265.54 34.54,-225.52 23.53,-304.05 23.53,-304.05 223.79,186.08 247.82,185.8 471.27,0zm-235.66 1510.73c36.02,132.71 137.37,197.23 325.69,357.32 656.34,557.85 834.81,755.23 1089.55,873.62 89.22,41.46 184.22,80.05 283.07,88.27 82.9,6.88 148.2,-55.63 157.9,-133.81 8.4,-67.38 -2.92,-138.11 -18.52,-203.69 -36.02,-151.59 -208.88,-760.7 -361.07,-1126.07 -199.35,-478.72 -278.58,-529.41 -411.19,-561.16 -123.65,-29.6 -242.71,-72.5 -362.16,-115.64 -107.07,-38.63 -211.81,-95.68 -295.88,-173.18 -87.7,-80.82 -111.94,-155.97 -127.39,-296.62 -11.39,-104.06 -15.59,-194.09 -11.67,-247.18 157.97,-141.64 276.43,-376.41 304.09,-549.06 -8.57,-10.13 -16.23,-21.13 -23.07,-32.74 -39.02,156.7 -132.96,503.66 -474.35,679.41 -51.22,26.43 -97.29,27.13 -150,0 -341.34,-175.75 -435.32,-522.71 -474.33,-679.41 -6.81,11.61 -14.54,22.61 -23.07,32.74 27.65,172.65 146.12,407.42 304.09,549.06 3.95,53.09 -0.25,143.12 -11.68,247.18 -15.41,140.65 -39.65,215.8 -127.38,296.62 -84.04,77.5 -188.78,134.55 -295.84,173.18 -119.49,43.14 -238.59,86.04 -362.17,115.64 -132.64,31.75 -211.87,82.44 -411.23,561.16 -152.19,365.37 -325.01,974.48 -361.03,1126.07 -15.59,65.58 -26.92,136.31 -18.56,203.69 9.7,78.18 75.04,140.69 157.94,133.81 98.81,-8.22 193.85,-46.81 283.07,-88.27 254.71,-118.39 433.21,-315.77 1089.55,-873.62 188.32,-160.09 289.66,-224.61 325.64,-357.32zm0.85 -3097.38c-1.02,0 -1.02,1.55 0,1.55 0.99,0 0.99,-1.55 0,-1.55zm-1.66 0c1.02,0 1.02,1.55 0,1.55 -0.99,0 -0.99,-1.55 0,-1.55zm1.27 9.03c0.04,-1.48 1.66,-1.41 1.62,-2.65 3.5,-5.68 -7.69,-5.71 -4.16,0 -0.03,1.27 1.62,1.17 1.62,2.65 0.04,1.69 0.89,1.62 0.92,0zm2052.99 4262.85c-33.23,21.7 -62.4,54.82 -104.03,58.21 -27.7,2.26 -96.2,-5.22 -99.27,-43.36 -0.29,-3.46 -5.26,-5.57 -7.13,-1.9 -36.58,73.52 166.69,133.98 216.92,-7.94 1.34,-3.63 -3.35,-7.09 -6.49,-5.01zm-4106.85 0c33.23,21.7 62.37,54.82 104,58.21 27.69,2.26 96.24,-5.22 99.27,-43.36 0.32,-3.46 5.29,-5.57 7.13,-1.9 36.58,73.52 -166.66,133.98 -216.93,-7.94 -1.3,-3.63 3.35,-7.09 6.53,-5.01zm1156.12 -140.86c6.28,7.62 0.74,17.32 -8.53,16.61 9.41,9.07 6.84,-4.06 25.47,35.63 4.48,9.6 10.76,18.31 12.17,29 2.43,18.03 -21.98,26.92 -29.11,13.9 -11.71,0.78 -17.42,-6.91 -22.58,-16.72 -2.04,0.39 -4.12,0.42 -6.13,0.1 -3.95,5.61 -10.9,7.41 -17.11,5.93 -6.95,8.22 -21.7,10.97 -26.92,-1.06 -37.92,-87.38 44.8,-117.12 72.74,-83.39zm1911.38 267.47c-37.71,26.92 -84.46,20.64 -124.6,3 15.03,-49.6 11,-104.53 -19.37,-150.81 10.62,-4.34 32.6,-17.99 78.46,-16.27 82.51,3.25 150.92,103.23 65.51,164.08zm-207.58 222.46c-27.05,-12.94 -43.18,-47.55 -43.18,-75.99 0,-3.81 -1.55,-7.23 -3.95,-9.91 51.51,-14.99 92.96,-53.16 116.67,-100.12 17.07,18.7 31.15,39.13 37.28,64.35 12.88,52.53 -46.67,150.49 -106.82,121.67zm-136.7 -22.26c-34.99,13.16 -68.68,-14.32 -92.43,-37.18 -24.83,-23.85 -32.52,-56.87 -23.28,-89.54 7.52,-26.59 26.53,-40.88 47.73,-53.65 -2.4,52 34.93,133.49 129.89,122.34 -12.87,27.8 -32.66,47.06 -61.91,58.03zm3.11 -206.62c13.75,0.67 26.88,12.74 27.16,26.6 7.02,1.23 2.82,-0.11 9.77,1.69 66.11,17.22 156.92,-114.61 7.23,-193.95 -55.35,-29.32 -120.61,-22.37 -176.42,1.23 28.79,-24.06 60.33,-40.89 96.41,-44.98 80.65,-9.14 232.13,39.44 228.67,173.04 -3.03,115.53 -159.31,199.39 -211.52,125.52 -15.77,-22.3 -28.75,-91.55 18.7,-89.15zm-446.41 115.29c-20.6,5.08 -40.11,0.28 -59.86,-3.56 57.5,-18.53 124.24,-64.21 163.47,-119.21 90.35,-47.98 95.96,-244.33 195.05,-299.61 25.4,-14.22 62.8,-5.82 84.42,11.64 19.55,15.87 27.17,47.1 31.93,53.37 -197.73,16.37 -264.83,320.36 -415.01,357.37zm-185.35 152.68c-66.21,42.16 -16.08,42.16 -82.3,0 -90.41,-57.5 -175.36,-81.63 -244.5,-143.93 43.71,26.07 94.12,33.51 156.56,7.55 46.28,50.06 117.47,85.72 129.07,90.03 7.02,-2.61 79.77,-36.69 129.12,-90.03 62.44,25.96 112.82,18.52 156.53,-7.55 -69.08,62.3 -154.17,86.46 -244.48,143.93zm-682.65 -510.05c4.66,-6.13 12.45,-37.6 31.93,-53.37 21.59,-17.46 58.95,-25.86 84.38,-11.64 96.24,53.69 106.05,252.37 195.05,299.61 45.69,64 120.09,105.24 163.48,119.21 -19.75,3.84 -39.26,8.64 -59.83,3.56 -150.21,-37.01 -217.28,-341 -415.01,-357.37zm-156.63 190.22c6.67,50.91 51.82,95.18 90.59,79.27 2.26,-0.1 4.73,-0.35 7.45,-0.81 0.31,-13.86 13.4,-25.93 27.19,-26.6 47.42,-2.4 34.47,66.85 18.7,89.15 -52.24,73.87 -208.53,-9.99 -211.52,-125.52 -3.46,-133.6 148.02,-182.18 228.63,-173.04 36.09,4.09 67.63,20.92 96.45,44.98 -154.94,-65.47 -266.63,43.18 -257.49,112.57zm196.32 78.11c21.17,12.77 40.18,27.06 47.69,53.65 9.25,32.67 1.59,65.69 -23.24,89.54 -23.78,22.86 -57.44,50.34 -92.47,37.18 -29.24,-10.97 -49.03,-30.23 -61.87,-58.03 93.34,10.97 132.36,-68.4 129.89,-122.34zm-161.54 126.64c0.07,72.68 -77.71,116.14 -125.52,43.5 -36.65,-55.63 -36.83,-99.13 12.81,-153.53 23.74,46.96 65.16,85.13 116.7,100.12 -2.44,2.68 -3.99,6.1 -3.99,9.91zm-250.79 -146.47c-85.33,-60.85 -16.86,-160.87 65.51,-164.08 45.94,-1.72 68.02,11.96 78.5,16.27 -30.34,46.28 -34.4,101.21 -19.37,150.81 -40.15,17.64 -86.86,23.92 -124.64,-3zm340.86 -248.71c-45.05,3.18 -123.76,22.62 -173.96,72.92 -94.12,-136.21 69.89,-262.04 173.96,-72.92zm316.09 -373.34c26.24,-52.07 52.17,-104 58.94,-161.79 69.61,54.16 136.85,144.33 129.09,218.06 -169.97,179.95 -215.45,355.81 -202.39,449.72 -91.97,-217.21 -84.1,-310.45 14.36,-505.99zm357.17 -398.46c41.42,73.97 194.98,128.79 163.13,348.33 -22.09,40.78 -21.66,59.51 -21.91,76.59 -74.01,-80.61 -101.21,-144.61 -141.22,-228.14 -40.57,84.77 -67.41,147.81 -141.17,228.14 -0.25,-14.86 1.06,-34.22 -21.94,-76.59 -31.79,-219.39 121.91,-274.64 163.11,-348.33zm198.79 1038.93c34.61,-82.2 29.11,-201.37 5.12,-279.83 -28.89,-94.4 -93.35,-155.61 -161.29,-268.43 -58.7,-97.43 -25.97,-98.35 -85.2,0 -67.86,112.58 -132.42,174.06 -161.28,268.43 -23.95,78.21 -29.63,197.38 5.08,279.83 23.74,56.44 45.76,62.12 -9.35,31.39 -162.66,-90.66 -157.97,-232.51 -77.57,-397.29 102.13,-209.27 198.85,-199.47 285.7,-413.32 86.65,213.4 183.73,204.4 285.75,413.32 80.15,164.35 85.34,306.49 -77.57,397.29 -55.11,30.73 -33.09,25.05 -9.39,-31.39zm-198.79 -211.04c-83.82,46.61 -158.03,174.35 -70.2,316.09 9.31,15.03 32.49,44.74 32.49,44.74 -60.01,-45.23 -130.2,-134.06 -145.51,-208.64 -12.45,-60.57 -13.97,-174.2 32.35,-264.93 43.39,-84.88 68.43,-90.14 150.87,-215.3 73.03,114.86 107.39,130.14 150.85,215.3 46.39,90.77 44.77,204.64 32.39,264.93 -15.31,74.51 -85.55,163.44 -145.53,208.64 0,0 23.25,-29.78 32.5,-44.74 83.5,-134.72 21.48,-265.11 -70.21,-316.09zm298.28 -591.22c6.73,57.79 32.7,109.72 58.91,161.79 99.87,198.29 105.09,291.75 14.39,505.99 10.02,-72.39 -13.26,-148.31 -43.07,-216.29 -53.09,-121.18 -109.22,-180.38 -159.31,-233.43 -7.77,-73.73 59.33,-163.8 129.08,-218.06zm548.99 608.05c-43.71,-43.81 -115.78,-68.79 -173.96,-72.92 104.29,-189.58 268.12,-63.32 173.96,72.92zm125.59 -15.27c26.67,-71.97 -31.75,-104.18 -66.08,-84.32 -9.2,-60.82 -73.94,-132.29 -169.65,-84.56 -21.48,-33.12 -93.7,-39.02 -122.55,24.03 -25.47,-13.73 -55.85,-17.78 -84.03,-10.73 -30.03,7.55 -50.8,32.74 -68.76,56.59 41.66,-248.57 -137.23,-380.61 -139.74,-517.88 -0.14,-9.56 -10.72,-16.02 -19.15,-10.97 -43.5,25.82 -79.31,58.24 -108.69,97.86 11.78,-195.58 -143.87,-280.07 -178.79,-334.96 -22.79,-35.92 -8.08,-35.88 -30.83,0 -34.89,54.89 -190.56,139.41 -178.78,334.96 -29.39,-39.62 -65.23,-72.04 -108.69,-97.86 -8.43,-5.05 -18.98,1.41 -19.16,10.97 -2.5,138.71 -181.68,267.65 -139.73,517.88 -17.96,-23.85 -38.74,-49.04 -68.72,-56.59 -28.23,-7.05 -58.6,-3 -84.04,10.73 -28.82,-62.94 -101.07,-57.19 -122.59,-24.03 -115.21,-57.5 -208.14,58.07 -155.29,171.24 -180.09,-41.06 -265.85,163.23 -119.31,227.19 -20.07,20.46 -16.01,53.9 -0.1,75.95 14.53,20.08 45.68,30.94 65.54,17.08 15.21,103.82 107.07,160.76 171.95,108.62 9.24,19.79 28.08,36.16 49.1,40.11 27.34,5.15 55.25,-18.84 61.39,-44.88 69.32,12.46 177.37,-84.17 139.41,-176.6 -32.35,-78.77 -84.31,-68.47 -87.52,-72.63 -30.73,-39.51 -92.04,-46.82 -113.14,4.83 -29.63,-0.07 -48.33,-54.64 -36.65,-77.51 37.71,-73.76 152.96,-106.75 278.24,-24.58 122.09,150.24 101.7,159.73 137.44,209.65 65.3,91.27 161.15,116.24 266.02,177.84 148.13,87.1 11.96,87.1 160.12,0 104.85,-61.6 200.73,-86.57 266,-177.84 35.91,-50.16 15.17,-59.23 137.48,-209.65 125.87,-82.59 240.77,-48.72 278.2,24.58 11.71,22.87 -6.99,77.44 -36.66,77.51 -21.02,-51.47 -82.27,-44.52 -113.1,-4.83 -3.21,4.16 -55.17,-6.14 -87.52,72.63 -37.96,92.36 70.06,189.09 139.34,176.6 6.18,26.04 34.12,50.03 61.42,44.88 21.06,-3.95 39.83,-20.32 49.11,-40.11 64.56,51.86 156.67,-4.31 171.94,-108.62 19.87,13.86 51.05,3 65.55,-17.08 15.91,-22.05 19.97,-55.49 -0.14,-75.95 120.72,-52.64 85.16,-204.19 -38.84,-229.55zm129.54 -1617.88c51.68,42.41 152.82,74.16 194.98,72.71 24.94,8.57 29.07,-27.62 5.93,-31.75 2.61,-8.71 -2.19,-15.06 -8.97,-17.64 -1.27,-4.37 -3.1,-6.63 -12.31,-16.3 3.25,-4.62 4.09,-10.47 0.04,-16.26 -33.9,-48.61 2.68,-27.2 -115.04,-129.47 -10.59,-9.14 -24.03,-17.78 -38.28,-17.78 -45.05,-37.08 -56.2,-32 -89.75,-21.94 -0.35,-0.74 -4.3,-10.2 -4.93,-9.74 -2.23,-3.81 -7.48,-5.93 -10.8,-1.62 -19.4,25.01 1.62,126.22 79.13,189.79zm262.36 185.63c-277.14,26.22 -460.34,-160.44 -447.32,-401.84 -29.92,-16.9 -41.28,-14.29 -41.28,-14.29 -12.63,25.89 -12.87,28.29 -5.82,85.62 43.22,351.82 435.36,421.6 521.23,366 -15.35,-30.19 -7.69,-37.28 -26.81,-35.49zm-37.4 286.25c-60.5,6.98 -106.57,-56.55 -112.71,-111.16 82.59,12.7 120.79,7.16 196.11,-16.02 -9.95,52.95 -21.45,120.12 -83.4,127.18zm-282.64 -35.7c-31.65,-10.94 -47.94,-43.15 -55.32,-73.52 -6.73,-27.84 -1.05,-55.56 -1.62,-83.22 60.89,39.02 123.58,61.06 192.44,75.07 -27.9,80.15 -81.67,100.26 -135.5,81.67zm-140.65 -143.02c-39.48,14.08 -111.52,-19.33 -96.28,-124.78 2.86,-19.93 14.11,-36.61 21.35,-54.5 31.68,56.37 75.42,104.14 126.22,142.8 -8.01,8.68 -14.75,23.46 -51.29,36.48zm-201.02 -233.71c-29.63,-46.47 17.01,-116.46 62.97,-131.77 11.22,50.45 27.38,113.17 49.39,159.67 -18.38,13.02 -85.79,13.76 -112.36,-27.9zm-22.86 -308.97c26.71,-10.97 55.25,0.36 81.64,-4.44 -4.8,63.46 -12.56,90.1 -1.13,154.8 -154.31,-10.8 -154.8,-119.91 -80.51,-150.36zm738.9 557.46c-92.96,29 -129.68,37.71 -254.64,9.67 -131.73,-29.56 -237.66,-108.94 -299.15,-204.22 -40.89,-63.36 -74.37,-206.31 -77.4,-254.25 -2.65,-42.23 5.36,-88.2 -6.81,-129.05 -2.47,-8.53 -12.88,-8.46 -16.86,-2.33 -60.75,-36.58 -155.37,3.96 -162.88,78.43 -6.11,60.43 51.43,109.92 113.77,119.52 -89.04,73.13 -60.54,207.18 74.54,198.96 -22.68,43.22 -24.66,115.86 12.17,163.66 28.33,36.79 90.77,58.1 150.21,18.2 -11.88,187.57 176.96,215.34 240.88,100.68 21.13,53.63 68.44,97.65 128.59,97.94 92.29,0.45 114.51,-104.29 125.16,-175.41 4.27,-28.43 -17.53,-31.11 -27.58,-21.8zm-871.15 -377.08c4.09,0.77 45.54,10.26 54.08,13.16 -21.59,10.79 -42.44,23.39 -64.14,33.93 -91.19,44.35 -96.16,-68.19 10.06,-47.09zm90.7 0.35c-95.08,-59.23 -215.62,-41.94 -199.61,46.85 8.01,44.24 59.13,49.28 93.49,37.57 27.91,-9.49 140.58,-62.93 106.12,-84.42zm49.95 321.88c-33.09,88.97 -137.9,47.62 -48.58,-28.4 22.51,-19.12 47.56,-24.94 68.94,-37.5 -2.93,9.17 -9.42,36.4 -20.36,65.9zm40 -91.83c-4.12,-0.36 -49.07,4.8 -70.59,14.88 -87.13,41.07 -103.15,112.61 -65.05,146.27 33.09,29.1 82.59,8.04 106.01,-22.33 14.64,-19.02 22.51,-40.86 29.95,-63.43 7.2,-21.84 20.5,-51.44 9.49,-73.52 -1.8,-3.64 -5.92,-3.67 -9.81,-1.87zm157.66 298.87c-1.69,29.92 -15.63,79.83 -55.77,72.67 -41.45,-7.41 -14.57,-62.83 -1.91,-82.37 15.38,-23.57 37.71,-41.2 56.69,-61.56 -2.54,23.46 2.19,49.56 0.99,71.26zm7.44 -99.34c-61.52,-0.78 -178.25,159.1 -80.43,200.55 42.19,17.89 81.39,-15.48 96.27,-52.84 19.37,-48.72 4.13,-182.85 -15.84,-147.71zm282.86 312.77c-35.13,-27.76 8.96,-107.31 15.17,-133.14 7.55,11.79 16.48,22.69 21.59,30.1 51.05,73.8 -7.83,125.9 -36.76,103.04zm37.54 -162.59c-5.61,-10.8 -8.08,-20.08 -20.39,-24.2 -8.22,-2.72 -15.38,9.63 -15.1,20.1 -9.46,8.86 -14.25,22.37 -18.66,34.79 -9.99,27.87 -25.65,52 -28.37,82.34 -3.7,42.44 16.2,90.55 65.65,87.73 46.92,-2.71 73.07,-56.13 69.15,-97.82 -3.95,-41.35 -34.4,-68.58 -52.28,-102.94zm314.25 91.44c-11.71,0 -47.45,-10.9 -53.13,-59.66 -6.13,-51.96 28.4,-82.48 11.72,-109.4 -13.41,-21.66 -67.17,76.56 -35.42,146.3 23.67,51.93 81.03,66.01 100.43,47.98 -8.36,-37.04 2.93,-25.22 -23.6,-25.22zm-899.58 -884.66c12.13,-7.59 27.06,-13.27 29.35,-28.47 0.63,-4.2 -1.02,-9.04 -5.75,-10.09 -15.73,-3.43 -30.16,6.98 -43.89,14.21 -45.33,23.89 -81.56,13.02 -91.75,-48.61 -1.38,-8.29 -6.57,-15.98 -5.33,-24.83 1.38,-9.46 -20.74,-10.48 -18.2,47.16 2.22,51.15 60.6,97.47 135.57,50.63zm-1731.11 282.25c-51.71,42.41 -152.86,74.16 -195.05,72.71 -24.94,8.57 -29,-27.62 -5.89,-31.75 -2.61,-8.71 2.22,-15.06 9,-17.64 1.23,-4.37 3.07,-6.63 12.27,-16.3 -3.24,-4.62 -4.05,-10.47 -0.03,-16.26 33.9,-48.61 -2.68,-27.2 115.11,-129.47 10.55,-9.14 23.99,-17.78 38.21,-17.78 45.08,-37.08 56.19,-32 89.78,-21.94 0.31,-0.74 4.3,-10.2 4.94,-9.74 2.18,-3.81 7.44,-5.93 10.76,-1.62 19.43,25.01 -1.63,126.22 -79.1,189.79zm-262.36 185.63c277.11,26.22 460.31,-160.44 447.29,-401.84 29.91,-16.9 41.27,-14.29 41.27,-14.29 12.6,25.89 12.92,28.29 5.86,85.62 -43.25,351.82 -435.4,421.6 -521.23,366 15.49,-30.48 7.73,-37.28 26.81,-35.49zm37.36 286.25c60.5,6.98 106.61,-56.55 112.71,-111.16 -82.58,12.7 -120.75,7.16 -196.11,-16.02 9.95,52.95 21.45,120.12 83.4,127.18zm282.68 -35.7c31.61,-10.94 47.94,-43.15 55.32,-73.52 6.7,-27.84 1.02,-55.56 1.59,-83.22 -60.89,39.02 -123.55,61.06 -192.41,75.07 27.9,80.15 81.63,100.26 135.5,81.67zm140.62 -143.02c39.44,14.08 111.48,-19.33 96.31,-124.78 -2.9,-19.93 -14.15,-36.61 -21.42,-54.5 -31.6,56.37 -75.38,104.14 -126.18,142.8 8,8.68 14.74,23.46 51.29,36.48zm201.05 -233.71c29.63,-46.47 -17.04,-116.46 -63.04,-131.77 -11.15,50.45 -27.34,113.17 -49.36,159.67 18.38,13.02 85.8,13.76 112.4,-27.9zm22.82 -308.97c-26.67,-10.97 -55.21,0.36 -81.63,-4.44 4.8,63.46 12.59,90.1 1.13,154.8 154.3,-10.8 154.8,-119.91 80.5,-150.36zm-738.89 557.46c92.99,29 129.72,37.71 254.63,9.67 131.73,-29.56 237.71,-108.94 299.16,-204.22 40.92,-63.36 74.37,-206.31 77.4,-254.25 2.64,-42.23 -5.33,-88.2 6.77,-129.05 2.54,-8.53 12.95,-8.46 16.9,-2.33 60.78,-36.58 155.36,3.96 162.91,78.43 6.11,60.43 -51.5,109.92 -113.8,119.52 89.07,73.13 60.57,207.18 -74.51,198.96 22.68,43.22 24.66,115.86 -12.21,163.66 -28.32,36.79 -90.73,58.1 -150.21,18.2 11.93,187.57 -176.92,215.34 -240.88,100.68 -21.09,53.63 -68.43,97.65 -128.55,97.94 -92.32,0.45 -114.51,-104.29 -125.16,-175.41 -4.31,-28.43 17.49,-31.11 27.55,-21.8zm871.15 -377.08c-4.09,0.77 -45.51,10.26 -54.05,13.16 21.59,10.79 42.41,23.39 64.14,33.93 91.16,44.35 96.13,-68.19 -10.09,-47.09zm-90.7 0.35c95.07,-59.23 215.65,-41.94 199.6,46.85 -7.97,44.24 -59.09,49.28 -93.49,37.57 -27.86,-9.49 -140.58,-62.93 -106.11,-84.42zm-49.92 321.88c33.02,88.97 137.87,47.62 48.54,-28.4 -22.47,-19.12 -47.52,-24.94 -68.89,-37.5 2.89,9.17 9.38,36.4 20.35,65.9zm-40.04 -91.83c4.16,-0.36 49.07,4.8 70.59,14.88 87.14,41.07 103.12,112.61 65.02,146.27 -33.02,29.1 -82.52,8.04 -105.94,-22.33 -14.64,-19.02 -22.51,-40.86 -29.95,-63.43 -7.23,-21.84 -20.53,-51.44 -9.53,-73.52 1.8,-3.64 5.97,-3.67 9.81,-1.87zm-157.66 298.87c1.7,29.92 15.67,79.83 55.78,72.67 41.49,-7.41 14.6,-62.83 1.87,-82.37 -15.31,-23.57 -37.64,-41.2 -56.66,-61.56 2.54,23.46 -2.18,49.56 -0.99,71.26zm-7.44 -99.34c61.56,-0.78 178.26,159.1 80.43,200.55 -42.19,17.89 -81.38,-15.48 -96.23,-52.84 -19.41,-48.72 -4.13,-182.85 15.8,-147.71zm-282.82 312.77c35.1,-27.76 -9,-107.31 -15.21,-133.14 -7.55,11.79 -16.51,22.69 -21.59,30.1 -51.04,73.8 7.84,125.9 36.8,103.04zm-37.57 -162.59c5.61,-10.8 8.08,-20.08 20.42,-24.2 8.19,-2.72 15.35,9.63 15.1,20.1 9.42,8.86 14.22,22.37 18.66,34.79 9.95,27.87 25.62,52 28.3,82.34 3.77,42.44 -16.16,90.55 -65.62,87.73 -46.92,-2.71 -73.06,-56.13 -69.11,-97.82 3.88,-41.35 34.36,-68.58 52.25,-102.94zm-314.26 91.44c11.72,0 47.45,-10.9 53.17,-59.66 6.1,-51.96 -28.4,-82.48 -11.75,-109.4 13.44,-21.66 67.2,76.56 35.42,146.3 -23.67,51.93 -81,66.01 -100.4,47.98 8.36,-37.04 -3,-25.22 23.56,-25.22zm899.55 -884.66c-12.1,-7.59 -26.99,-13.27 -29.31,-28.47 -0.64,-4.2 0.98,-9.04 5.75,-10.09 15.73,-3.43 30.19,6.98 43.88,14.21 45.33,23.89 81.6,13.02 91.76,-48.61 1.34,-8.29 6.6,-15.98 5.36,-24.83 -1.37,-9.46 20.71,-10.48 18.2,47.16 -2.25,51.15 -60.67,97.47 -135.64,50.63zm1042.56 -743.12c3.95,-143.37 12.63,-157.23 16.75,-222.57 0.18,-3 -19.72,0.67 -19.82,3.35 -0.57,15.6 -10.52,32.49 -14.01,47.91 -7.23,32.21 -14.96,145.7 -15.94,179 -6.6,226.26 90.94,291.81 147.35,412.32 35.35,75.46 34.68,160.65 34.68,242.21 0,22.72 33.13,18.95 32.7,-0.1 0.07,0.07 0.18,0.07 0.25,0.1 0,-79.48 -0.57,-160.16 -29.25,-235.41 -53.97,-141.78 -159.59,-179.42 -152.71,-426.81zm-827.51 0c-3.98,-143.37 -12.62,-157.23 -16.79,-222.57 -0.17,-3 19.76,0.67 19.83,3.35 0.6,15.6 10.55,32.49 14,47.91 7.24,32.21 14.96,145.7 15.95,179 6.63,226.26 -90.91,291.81 -147.32,412.32 -35.38,75.46 -34.71,160.65 -34.71,242.21 0,22.72 -33.13,18.95 -32.71,-0.1 -0.1,0.07 -0.14,0.07 -0.21,0.1 0,-79.48 0.57,-160.16 29.21,-235.41 54.01,-141.78 159.6,-179.42 152.75,-426.81zm1232.11 -0.53c-119.81,-113.74 -184.72,-175.4 -223.21,-262.86 -37.32,-84.8 -38.98,-153.24 -49.21,-205.91 -4.58,-23.71 -64.73,153 97.02,339.65 115.07,132.89 273.08,223.98 292.87,373.16 14.85,111.87 -31.61,263.99 -50.73,354.75 -2.18,-139.1 -43.95,-261.44 -143.19,-373.59 -106.29,-120.11 -204.89,-171.51 -241.97,-361.69 -11.08,-56.9 2.65,-130.92 -11.89,-186.87 -6.31,-24.44 -55.07,156.46 19.76,318.84 100.5,217.94 371.44,257.56 341.66,677.96 -10.26,144.68 49.67,131.2 50.45,116 12.77,-244.97 30.16,-203.17 58.81,-373.03 33.51,-198.93 4.12,-279.18 -140.37,-416.41zm-1636.74 0c119.8,-113.74 184.75,-175.4 223.24,-262.86 37.29,-84.8 38.94,-153.24 49.17,-205.91 4.63,-23.71 64.7,153 -96.94,339.65 -115.15,132.89 -273.16,223.98 -292.91,373.16 -14.85,111.87 31.61,263.99 50.73,354.75 2.19,-139.1 43.88,-261.44 143.16,-373.59 106.29,-120.11 204.92,-171.51 241.97,-361.69 11.07,-56.9 -2.65,-130.92 11.88,-186.87 6.32,-24.48 55.07,156.46 -19.75,318.84 -100.51,217.94 -371.41,257.56 -341.63,677.96 10.27,144.68 -49.67,131.2 -50.45,116 -12.8,-244.97 -30.2,-203.17 -58.81,-373.03 -33.51,-198.93 -4.16,-279.18 140.34,-416.41zm-1918.41 1460.95c200.1,-159.07 18.42,-492.87 205.25,-682.06 22.15,-22.44 27.69,-25.01 39.51,-28.72 280.85,-88.19 428.7,-77.79 554.88,-419.52 76.42,-207.11 113.85,-413.55 328.23,-546.94 89.22,-21.2 -18.1,-2.68 -75.11,114.51 -51.19,105.13 -52.49,195.34 -53.83,274.15 -27.24,46.06 -41.45,93.9 -42.93,158.98 -29,87.28 -46.36,209.1 -171.98,315.53 -109.58,92.78 -197.84,89.57 -329.22,122.06 -330.8,81.81 -258.72,298.56 -329.03,526.7 -22.12,71.75 -57.33,133.66 -125.77,165.31zm5567.83 24.62l0 0.01c-29.16,15.48 -60.1,22.78 -92.34,11.18 -242.81,-87.21 -138.18,-442.99 -277.63,-597.12 -64.81,-71.54 -156.46,-93.66 -247.55,-112.25 8.29,23.42 11.57,49.53 20.46,72.07 66.71,169.23 246.38,178.75 299.37,381.88 13.51,51.86 19.02,111.52 3.88,164.29 56.59,100.93 63.89,249.42 40.71,283.04 -0.92,1.3 13.3,33.58 14.43,37.96 21.94,88.51 -31.75,258.4 44.8,327.9 12.53,11.43 30.24,17.54 45.62,24.34 6.07,2.72 5.92,13.09 0,15.88 -20.75,9.63 -39.34,5.93 -55.25,-4.9 -20.99,-3.11 -39.37,-11.68 -56.94,-24.59 -58.31,7.3 -109.71,-23.82 -144.35,-64.56 -123.79,-145.56 -85.83,-293.76 -181.3,-394.37 -100.96,-106.4 -240.13,-106.15 -313.61,-117.12 -167.36,-25.02 -170.5,-113.67 -142.56,-19.62 18.98,63.82 47.41,121.74 143.72,185.95 126.19,84.17 355.6,196.92 241.55,447.78 -0.22,9.81 -1.8,15.17 -4.48,25.58 -3.5,13.33 -3.04,28.18 -5.9,41.73 -12.55,60.43 -87.87,324.98 14.57,445.91 9.56,4.41 19.09,6.63 13.59,13.55 17.6,14.82 39.75,23.25 67.66,20.67 3.56,-0.32 4.62,4.84 1.73,6.49 -42.09,23.99 -77.12,28.08 -118.61,-31.22 -104.98,-24.16 -143.33,-160.69 -148.62,-267.26 -6.42,-130 50.66,-269.07 28.26,-380.54 -36.06,-179.43 -202.85,-205.07 -269.67,-222.22 223.1,159.95 203.8,330.1 143.65,619.37 -26.17,126.05 -64.62,248.99 19.58,319.48 17.04,14.29 37.36,23.99 59.27,28.29 20.78,4.09 43.04,9.42 64.03,11.71 8.04,0.82 10.83,12.53 2.01,14.82 -22.54,5.72 -40.64,11.04 -64.06,7.16 -81,-13.51 -129.23,-76.48 -141.19,-133.88 -30.65,-147.63 138.57,-512.94 31.58,-698.25 -65.65,-113.7 -182.07,-169.79 -208.42,-199.85 -99.06,-46.42 -143.34,-138.04 -178.23,-239.22 -13.44,-38.98 -3.45,-50.3 -17.95,-71.75 -2.54,-3.71 3.03,-7.69 6.06,-4.66 21.91,21.66 75.89,218.83 193.29,281.24 93.88,49.84 225.04,41.24 311.72,131.51 139.7,145.52 69.88,294.57 54.57,454.8 54.33,-113.1 306.53,-320.28 -24.09,-537.95 -63.01,-41.49 -173.5,-93.24 -224.51,-198.65 -17.68,-36.51 -40.29,-128.02 -40.36,-142.59 -105.52,-95.64 -139.03,-202 -143.65,-331.61 -120.09,-189.3 97.37,-580.11 -162.07,-916.51 48.76,90.76 47.52,171.37 33.76,296.18 -14.21,129.23 -34.39,258.98 -70.9,384 -17.89,61.35 -41.31,126.72 -43.5,191.14 -2.05,63.11 17.95,122.16 20.74,184.57 0.35,7.2 -9.31,9.03 -12.84,3.49 -96.27,-152.01 1.06,-346.71 37.22,-525.28 17.85,-88.34 51.68,-297.01 43.92,-389.19 -23.32,-277.48 -354.51,-384.13 -572.84,-535.61 144.53,127.71 339.83,202.32 368.09,523.05 18.52,210.65 -62.06,366.33 52.91,720.83 2.26,6.92 -7.69,10.52 -11.32,4.77 -131.59,-206.17 -68.4,-445.56 -71.79,-675.15 -4.76,-322.71 -210.04,-421.56 -268.43,-486.12 -1.9,-1.09 -3.7,-2.18 -5.57,-3.28 23.56,29.74 43.95,62.13 61.03,95.75 217.94,428.51 -91.73,729.07 54.22,893.93 2.89,3.24 1.16,9.24 -3.74,9.03 -152.72,-6.74 -10.44,-350.77 -2.58,-530.86 7.77,-177.23 -46.6,-349.24 -167.67,-490.92 -170.85,-200.02 -256.44,-190.39 -498.97,-705.17 -69.64,-147.81 -137.97,-387.31 -228.81,-479.28 -26.25,-26.6 -67.63,-68.79 -108.76,-41.21 -30.17,20.22 -19.12,56.84 -27.03,71.55 -6.38,11.78 -15.62,11.68 -21.94,0 -7.9,-14.71 3.14,-51.33 -27.02,-71.55 -41.14,-27.58 -82.54,14.61 -108.75,41.21 -90.84,91.97 -159.14,331.47 -228.78,479.28 -242.57,514.78 -328.12,505.15 -499,705.17 -121.08,141.68 -175.44,313.69 -167.68,490.92 7.87,180.09 150.18,524.12 -2.54,530.86 -4.9,0.21 -6.63,-5.79 -3.77,-9.03 145.94,-164.86 -163.73,-465.42 54.18,-893.93 17.11,-33.62 37.57,-66.01 61.07,-95.75 -1.87,1.1 -3.67,2.19 -5.54,3.28 -58.42,64.56 -263.7,163.41 -268.46,486.12 -3.39,229.59 59.79,468.98 -71.79,675.15 -3.67,5.75 -13.55,2.15 -11.29,-4.77 114.97,-354.5 34.36,-510.18 52.91,-720.83 28.23,-320.73 223.52,-395.34 368.09,-523.05 -218.37,151.48 -549.52,258.13 -572.87,535.61 -7.76,92.18 26.07,300.85 43.92,389.19 36.16,178.57 133.49,373.27 37.25,525.28 -3.53,5.54 -13.23,3.71 -12.91,-3.49 2.82,-62.41 22.86,-121.46 20.74,-184.57 -2.11,-64.42 -25.54,-129.79 -43.46,-191.14 -36.48,-125.02 -56.66,-254.77 -70.91,-384 -13.79,-124.81 -14.96,-205.42 33.73,-296.18 -259.4,336.4 -41.95,727.21 -162.03,916.51 -4.62,129.61 -38.14,235.97 -143.62,331.61 -0.07,14.57 -22.72,106.08 -40.39,142.59 -51.01,105.41 -161.47,157.16 -224.47,198.65 -330.66,217.67 -78.46,424.85 -24.1,537.95 -15.35,-160.23 -85.12,-309.28 54.54,-454.8 86.68,-90.27 217.84,-81.67 311.71,-131.51 117.41,-62.41 171.42,-259.58 193.29,-281.24 3.07,-3.03 8.61,0.95 6.07,4.66 -14.5,21.45 -4.48,32.77 -17.92,71.75 -34.93,101.18 -79.2,192.8 -178.26,239.22 -26.32,30.06 -142.77,86.15 -208.42,199.85 -107,185.31 62.26,550.62 31.54,698.25 -11.89,57.4 -60.12,120.37 -141.15,133.88 -23.42,3.88 -41.49,-1.44 -64.06,-7.16 -8.82,-2.29 -6,-14 2.01,-14.82 20.99,-2.29 43.25,-7.62 64.06,-11.71 21.84,-4.3 42.19,-14 59.27,-28.29 84.17,-70.49 45.75,-193.43 19.54,-319.48 -60.11,-289.27 -79.44,-459.42 143.69,-619.37 -66.85,17.15 -233.61,42.79 -269.67,222.22 -22.4,111.47 34.68,250.54 28.26,380.54 -5.29,106.57 -43.64,243.1 -148.66,267.26 -41.48,59.3 -76.55,55.21 -118.6,31.22 -2.86,-1.65 -1.8,-6.81 1.73,-6.49 27.9,2.58 50.09,-5.85 67.69,-20.67 -5.5,-6.92 3.96,-9.14 13.55,-13.55 102.41,-120.93 27.13,-385.48 14.57,-445.91 -2.82,-13.55 -2.36,-28.4 -5.86,-41.73 -2.68,-10.41 -4.26,-15.77 -4.48,-25.58 -114.05,-250.86 115.33,-363.61 241.55,-447.78 96.27,-64.21 124.74,-122.13 143.69,-185.95 27.97,-94.05 24.8,-5.4 -142.49,19.62 -73.52,10.97 -212.69,10.72 -313.69,117.12 -95.46,100.61 -57.54,248.81 -181.26,394.37 -34.67,40.74 -86.07,71.86 -144.35,64.56 -17.61,12.91 -35.95,21.48 -56.98,24.59 -15.91,10.83 -34.5,14.53 -55.21,4.9 -5.92,-2.79 -6.1,-13.16 0,-15.88 15.35,-6.8 33.06,-12.91 45.62,-24.34 76.55,-69.5 22.82,-239.39 44.8,-327.9 1.09,-4.38 15.31,-36.66 14.43,-37.96 -23.21,-33.62 -15.91,-182.11 40.67,-283.04 -15.13,-52.77 -9.63,-112.43 3.92,-164.29 52.99,-203.13 232.62,-212.65 299.37,-381.88 8.85,-22.54 12.17,-48.65 20.46,-72.07 -91.12,18.59 -182.78,40.71 -247.55,112.25 -139.48,154.13 -34.85,509.91 -277.67,597.12 -32.24,11.6 -63.18,4.3 -92.32,-11.19 43.92,-8.29 97.12,-67.31 119.13,-103.26 80.61,-131.44 29.5,-364.03 79.03,-502.56 65.15,-182.14 256.64,-222.75 364.45,-324.88 186.44,-176.67 89.4,-457.57 283.78,-641.23 2.57,-17.46 5.18,-34.89 8.78,-52.25 7.37,-35.24 46.04,-130 114.37,-214.52 187.57,-232.02 463.83,-257.25 628.16,-340.75 221.26,-112.39 330.3,-329.32 417.05,-560.74 46.85,-124.95 75.95,-205.92 167.04,-323.25 25.44,-32.77 102.31,-253.93 293.9,-332.32 133.39,-54.57 282.14,-12.24 355.34,79.66 73.24,-91.9 222.01,-134.23 355.39,-79.66 191.56,78.39 268.47,299.55 293.9,332.32 91.05,117.33 120.16,198.3 167.01,323.25 86.74,231.42 195.79,448.35 417.08,560.74 164.29,83.5 440.55,108.73 628.13,340.75 68.36,84.52 107.03,179.28 114.37,214.52 3.63,17.36 6.2,34.79 8.78,52.25 194.35,183.66 97.3,464.56 283.77,641.23 107.81,102.13 299.3,142.74 364.46,324.88 49.53,138.53 -1.55,371.12 79.06,502.56 22.01,35.94 75.19,94.95 119.11,103.26zm-220.04 -189.93c-70.31,-228.14 1.8,-444.89 -329.04,-526.7 -131.37,-32.49 -219.64,-29.28 -329.18,-122.06 -125.69,-106.43 -143.01,-228.25 -171.97,-315.53 -1.52,-65.08 -15.7,-112.92 -42.97,-158.98 -1.31,-78.81 -2.65,-169.02 -53.8,-274.15 -57.01,-117.19 -164.33,-135.71 -75.14,-114.51 214.38,133.39 251.81,339.83 328.26,546.94 126.15,341.73 274,331.33 554.85,419.52 11.85,3.71 17.35,6.28 39.51,28.72 186.83,189.19 5.11,522.99 205.24,682.06 -68.4,-31.65 -103.61,-93.56 -125.76,-165.31zm-4787.22 -515.84c74.54,-15.27 137.05,-30.83 196.92,-71.36 -1.34,31.29 11.08,112.46 -3.14,196.07 -55.99,328.4 -353.49,226.27 -528.29,460.48 -4.76,-42.97 -2.47,-83.54 15.31,-135.68 68.8,-202.17 255.17,-165.73 319.2,-449.51zm4671.65 449.51c17.78,52.14 20.03,92.71 15.31,135.68 -174.8,-234.21 -472.3,-132.08 -528.29,-460.48 -14.25,-83.61 -1.83,-164.78 -3.21,-196.07 59.9,40.53 122.42,56.09 196.96,71.36 64.03,283.78 250.44,247.34 319.23,449.51zm-4738.47 -7.65c108.9,-45.12 318.21,-100.58 299.12,-461.33 -1.44,-27.62 -5.04,-50.13 -0.95,-77.15 73.52,-58.53 126.96,-131.09 160.8,-230.26 14.64,-43 4.19,-37.89 25.32,48.83 19.09,238.86 72.18,475.08 -121.21,645.72 -126.79,111.9 -189.34,83.54 -337.18,138.25 -156.11,57.79 -259.37,184.22 -336.73,331.65 -8.47,-247.93 160.05,-333.27 310.83,-395.71zm4796.92 395.71c-77.36,-147.43 -180.66,-273.86 -336.72,-331.65 -147.89,-54.71 -210.44,-26.35 -337.22,-138.25 -193.4,-170.64 -140.27,-406.86 -121.22,-645.72 21.13,-86.72 10.69,-91.83 25.37,-48.83 33.79,99.17 87.24,171.73 160.76,230.26 4.09,27.02 0.49,49.53 -0.92,77.15 -19.12,360.75 190.22,416.21 299.08,461.33 150.82,62.44 319.3,147.78 310.87,395.71zm-5117.31 361.99c15.41,-185.53 10.86,-87.56 10.62,-278.21 15.38,-61.24 96.55,-203.8 189.93,-288.5 196.96,-178.61 349.89,-73.09 532.63,-268.43 -101.25,269.81 -423.9,206.63 -555.52,383.51 -100.51,135.08 -15.49,363.15 -198.65,506.83 8.99,-18.55 13.72,-33.83 17.39,-49.95 1.87,-0.77 3.39,-2.5 3.6,-5.25zm5130.47 5.25c3.67,16.12 8.4,31.4 17.36,49.95 -183.16,-143.68 -98.11,-371.75 -198.65,-506.83 -131.62,-176.88 -454.27,-113.7 -555.49,-383.51 182.71,195.34 335.67,89.82 532.59,268.43 93.38,84.7 174.56,227.26 189.9,288.5 -0.21,190.65 -4.72,92.68 10.66,278.21 0.24,2.75 1.73,4.48 3.63,5.25zm-5102.04 48.76c230.23,-239.68 -18.31,-464.54 359.59,-599.48 345.09,-123.3 338.67,-186.44 406.26,-356.34 45.82,-115.01 77.11,-182.49 60.57,-403.72 32.28,97.37 67.94,193.18 76.13,296.9 14.96,189.62 -24.06,344.27 -185.81,446.02 -123.44,77.64 -271.18,8.43 -426.01,143.36 -98.6,85.91 -96.59,181.37 -130.71,282.51 -27.69,82.16 -77.08,164.96 -160.02,190.75zm4909.99 -190.75c-34.11,-101.14 -32.14,-196.6 -130.74,-282.51 -154.83,-134.93 -302.54,-65.72 -425.98,-143.36 -161.78,-101.75 -200.77,-256.4 -185.84,-446.02 8.18,-103.72 43.85,-199.53 76.13,-296.9 -16.51,221.23 14.78,288.71 60.53,403.72 67.67,169.9 61.21,233.04 406.3,356.34 377.93,134.94 129.4,359.8 359.58,599.48 -82.93,-25.79 -132.32,-108.59 -159.98,-190.75zm-4000.03 -1019.21c-80.47,-286.81 -204.37,-504.83 -49.07,-683.99 182.52,-210.72 537.06,-261.13 762.84,-610.41 65.16,-100.72 103.79,-128.98 170.08,-275.06 172.43,-379.88 196.18,-559.02 297.53,-696.56 140.3,-190.47 321.34,-194.98 401.63,-113.56 4.09,4.12 14.71,31.5 19.47,53.87 -96.55,-46.18 -242.28,-18.28 -357.46,151.44 -131.23,193.33 -176.49,452.02 -231.63,681.57 -22.3,92.78 -62.48,181.29 -113.39,262.92 -30.93,36.83 -147.95,127.71 -185.77,153.15 -116.8,78.56 -210.22,112.39 -375.67,228.45 -17.75,12.49 -56.41,48.55 -73.91,61.32 -345.76,253 -210.01,687.09 -231.91,897.28 -8.97,86 -0.15,5.71 -32.74,-110.42zm3217.32 110.42c-21.87,-210.19 113.88,-644.28 -231.92,-897.28 -17.49,-12.77 -56.16,-48.83 -73.94,-61.32 -165.42,-116.06 -258.8,-149.89 -375.64,-228.45 -37.81,-25.44 -154.83,-116.32 -185.77,-153.15 -50.9,-81.63 -91.09,-170.14 -113.38,-262.92 -55.14,-229.55 -100.37,-488.24 -231.63,-681.57 -115.19,-169.72 -260.95,-197.62 -357.47,-151.44 4.79,-22.37 15.41,-49.75 19.5,-53.87 80.26,-81.42 261.31,-76.91 401.61,113.56 101.38,137.54 125.09,316.68 297.53,696.56 66.29,146.08 104.92,174.34 170.07,275.06 225.82,349.28 580.32,399.69 762.89,610.41 155.25,179.16 31.36,397.18 -49.11,683.99 -32.56,116.13 -23.74,196.42 -32.74,110.42zm-2239.63 -1406.59c65.89,-118.11 89.18,-288.96 123.15,-425.13 48.54,-194.8 146.47,-510.43 335.84,-577.29 74.93,-26.38 186.09,-20.53 180.37,66.4 0.71,-10.76 -25.86,-28.68 -34.18,-32.6 -31.22,-14.6 -59.83,3.56 -85.93,19.4 -106.15,64.21 -176.18,282.44 -224.83,403.58 -53.44,133.14 -183.51,400.79 -294.42,545.64zm1000.25 -545.64c-48.61,-121.14 -118.71,-339.37 -224.82,-403.58 -26.07,-15.84 -54.72,-34 -85.94,-19.4 -8.29,3.92 -34.89,21.84 -34.18,32.6 -5.68,-86.93 105.48,-92.78 180.41,-66.4 189.33,66.86 287.26,382.49 335.84,577.29 33.94,136.17 57.26,307.02 123.12,425.13 -110.88,-144.85 -240.98,-412.5 -294.43,-545.64zm-352.92 -589.31c9.1,-33.66 27.84,-91.44 67.91,-122.45 59.41,-45.97 135.15,-70.21 210.15,-69.15 188.07,2.72 396.98,268.25 482.07,488.39 84.07,217.52 165.7,444.78 371.02,593.3 111.3,80.5 224.82,96.52 144,85.44 -108.37,-14.92 -228.95,-38.59 -371.19,-252.9 -147.14,-221.76 -159.35,-420.13 -359.16,-612.92 -97.62,-94.23 -239.4,-176.42 -372.89,-140.83 -67.27,-0.18 -131.34,26.85 -171.91,80.54 -40.53,-53.69 -104.59,-80.72 -171.9,-80.54 -133.49,-35.59 -275.27,46.6 -372.88,140.83 -199.78,192.79 -212.02,391.16 -359.13,612.92 -142.24,214.31 -262.85,237.98 -371.19,252.9 -80.82,11.08 32.66,-4.94 144,-85.44 205.32,-148.52 286.92,-375.78 370.98,-593.3 85.13,-220.14 294.01,-485.67 482.11,-488.39 74.96,-1.06 150.74,23.18 210.1,69.15 40.11,31.01 58.81,88.79 67.91,122.45zm0 -145.38c6.14,-11.15 10.06,-21.95 13.8,-35.04 21.55,-75.63 287.48,-238.12 504.93,52.29 72.11,96.3 -7.69,-12.03 -121.99,-66.96 -168.07,-80.82 -364.28,38.24 -396.74,69.14 -32.45,-30.9 -228.62,-149.96 -396.72,-69.14 -114.3,54.93 -194.1,163.26 -121.99,66.96 217.45,-290.41 483.4,-127.92 504.92,-52.29 3.7,13.09 7.69,23.89 13.79,35.04zm-1211.96 1144.3c318.63,-59.12 453.32,-499.78 519.33,-628.65 80.01,-156.31 204.36,-306.88 368.33,-363.78 63.75,-22.16 27.17,-10.66 -6.77,10.09 -223.03,136.17 -231.88,368.58 -430.92,813.22 -28.54,35.21 -93.94,100.79 -161.96,146.83 -323.67,219.11 -483.3,69.99 -701.25,128.69 86.64,-48.33 158.4,-71.23 222.46,-92.53 4.62,0.81 9.42,1.94 14.85,3.49 23.92,6.84 151.38,-12.84 175.93,-17.36zm2599.83 17.36c5.46,-1.55 10.3,-2.68 14.85,-3.49 64.13,21.3 135.89,44.2 222.49,92.53 -217.91,-58.7 -377.57,90.42 -701.21,-128.69 -68.05,-46.04 -133.49,-111.62 -161.96,-146.83 -199.07,-444.64 -207.89,-677.05 -430.96,-813.22 -33.93,-20.75 -70.48,-32.25 -6.77,-10.09 163.97,56.9 288.33,207.47 368.37,363.78 65.97,128.87 200.7,569.53 519.29,628.65 24.55,4.52 152.01,24.2 175.9,17.36zm-2817.67 333.02c256.9,-96.94 332.04,-78.85 458.97,-175.47 -178.4,226.94 -416,306.49 -615.1,450.99 -143.62,104.25 -140.45,166.86 -121.75,78.88 42.62,-200.87 69.15,-275.62 277.88,-354.4zm3137.53 354.4c18.7,87.98 21.87,25.37 -121.78,-78.88 -199.11,-144.5 -436.67,-224.05 -615.1,-450.99 126.96,96.62 202.07,78.53 458.96,175.47 208.74,78.78 235.3,153.53 277.92,354.4zm-3427.16 -525.11c233.61,-121.57 315.7,0.35 576.23,-63.25 123.51,-30.16 248.29,-108.13 332.42,-187.05 -62.54,112.65 -149.75,218.59 -266.59,271.82 -93.49,42.55 -148.84,37.25 -345.23,111.41 -31.43,3.91 -48.22,16.58 -116.56,30.55 -133.84,27.3 -301.62,69.95 -411.26,150.85 28.46,-71.79 58.42,-174.66 171.34,-277.78 11.96,-10.9 11.15,-11.29 59.65,-36.55zm3498.49 36.55c112.96,103.12 142.95,205.99 171.42,277.78 -109.68,-80.9 -277.43,-123.55 -411.31,-150.85 -68.33,-13.97 -85.12,-26.64 -116.52,-30.55 -196.43,-74.16 -251.78,-68.86 -345.23,-111.41 -116.87,-53.23 -204.08,-159.17 -266.63,-271.82 84.17,78.92 208.92,156.89 332.42,187.05 260.53,63.6 342.62,-58.32 576.27,63.25 48.47,25.26 47.62,25.65 59.58,36.55zm-3461.44 195.05c-269.88,174.13 -222.01,625.32 -467.86,790.42 -85.93,57.68 -189.44,76.94 -251.25,92.57 100.76,-58.7 224.58,-120.05 280.21,-338.66 67.91,-267.05 47.21,-435.68 438.9,-544.33zm3803.71 544.33c55.59,218.61 179.42,279.96 280.17,338.66 -61.8,-15.63 -165.31,-34.89 -251.21,-92.57 -245.85,-165.1 -197.98,-616.29 -467.89,-790.42 391.69,108.65 371.02,277.28 438.93,544.33zm-4249.17 1835.64c41.24,59.58 90.77,119.91 91.2,194.2 0.49,82.84 -14.82,155.54 -83.93,206.77 58.39,-143.94 11.68,-324.24 -7.27,-400.97zm4248.46 400.97c-69.14,-51.23 -84.42,-123.93 -83.93,-206.77 0.39,-74.29 49.92,-134.62 91.16,-194.2 -18.91,76.73 -65.61,257.03 -7.23,400.97zm-472.97 -691.84c-2.64,-2.92 -7.3,0.82 -5.36,4.1 44.34,76.65 17.46,38.48 73.77,102.97 133.59,153 61.24,282.68 63.88,373.21 0.6,20.99 32.46,21.06 32.67,0 0.78,-80.23 38.63,-160.52 1.48,-270.37 -41.77,-123.48 -155.11,-197.56 -166.44,-209.91zm-3295.29 0c2.69,-2.92 7.27,0.82 5.37,4.1 -44.35,76.65 -17.43,38.48 -73.73,102.97 -133.6,153 -61.28,282.68 -63.93,373.21 -0.6,20.99 -32.42,21.06 -32.63,0 -0.81,-80.23 -38.66,-160.52 -1.52,-270.37 41.74,-123.48 155.16,-197.56 166.44,-209.91zm3088.42 -2816.03c91.41,31.78 125.03,-73.56 77.54,-110.74 -51.26,-31.96 -138.71,35.73 -77.54,110.74zm-346.92 -505.85c48.12,2.43 70.13,45.89 70.84,91.51 -35.38,-4.38 -71.93,-0.5 -102.06,16.58 -52.07,-46.96 -22.82,-110.88 31.22,-108.09zm850.12 724.92c5.72,-34.15 -3.13,-69.85 -19.4,-101.53 43.11,-14.99 91.48,-9.14 110.28,35.21 21.13,49.78 -28.96,99.13 -90.88,66.32zm-908.29 -596.02c-21.84,22.65 -37.57,55.95 -32.7,87.84 -15.84,-1.9 -35.74,-0.45 -48.62,-11.6 -48.01,-41.31 15.14,-119.42 81.32,-76.24zm854.18 730.99c-14.85,-8.32 -20.32,-27.48 -27.59,-41.7 31.68,-6.31 57.61,-32.52 71.37,-60.81 62.86,47.13 11.71,133.59 -43.78,102.51zm-699.77 -728.45c59.05,22.12 98.35,86.54 108.72,141.82 3.67,19.65 -1.37,13.3 -4.12,37.82 -2.86,24.66 -0.53,53.13 8.57,78.35 -64.73,-53.27 -41.52,-206.52 -113.17,-257.99zm407.14 463.73c26.81,-0.11 54.36,-7.62 76.55,-18.77 22.12,-11.01 14.36,-13.55 34.12,-16.83 55.49,-9.17 129.43,5.68 170.49,53.63 -72.88,-49.78 -208.98,24.58 -281.16,-18.03zm-41.8 -253.19c26.74,59.51 67.66,128.83 -23.25,195.65 -36.48,26.81 -79.06,22.72 -121.43,24.48 -12.59,0.53 -8.75,3.21 -12.59,-8.82 -12.88,-40.39 -31.26,-79.02 -18.56,-122.45 31.65,-108.26 110.81,-93.55 175.83,-88.86zm131.65 -128.8c14.18,56.69 41.24,93.77 36.3,175.51 -5.82,96.38 -21.48,161.71 -114.44,172.75 -15.77,1.87 -33.44,0.53 -48.51,-4.19 107.99,-83.47 40.86,-216.22 13.06,-241.06 -32.81,-17.6 -180.55,-35.24 -221.93,94.79 -9.67,-12.48 -16.97,-28.64 -20.61,-44.09 -21.45,-91.13 34.54,-128.2 123.09,-166.66 75.17,-32.66 119.24,-19.89 177.34,-26.03 71.68,-7.52 38.24,-30.9 55.7,38.98zm72.18 -162.38c12.35,94.86 90.42,195.68 -7.55,270.51 -10.48,-66.43 -35.42,-101.92 -39.16,-156.42 -4.37,-63.68 16.83,-48.86 -44.52,-31.15 -52.46,15.13 -94.37,3.88 -160.37,16.79 36.72,-117.65 158.22,-78.85 251.6,-99.73zm-286.81 108.48c-29.14,8.85 -57.22,21.52 -85.16,38.06 -58.31,34.75 -55.46,48.54 -52.92,31.08 5.44,-37.68 26.39,-72.14 49.29,-94.26 49.53,-47.87 68.51,-30.38 88.79,25.12zm337.08 272.98c-12.95,29.06 -38.1,60.53 -71.68,78.56 -15.53,8.36 -1.59,6.35 11.07,-60.36 6.04,-31.89 8.26,-62.62 6.64,-93.03 59.09,0 81.95,11.89 53.97,74.83zm-502.5 -233.33c-24.05,-45.69 -62.65,-83.68 -109.89,-100.01 0.22,-1.03 0.29,-2.12 0.25,-3.25 -0.95,-23.25 27.55,-52.39 49.39,-55.6 59.58,-8.75 85.87,76.52 60.25,158.86zm637.76 329.74c4.48,21.52 -13.16,58.35 -35.28,65.41 -1.13,0.35 -2.08,0.81 -3,1.3 -31.5,-38.77 -80.43,-61.98 -131.62,-68.93 68.61,-52.32 157.73,-56.8 169.9,2.22zm-567.98 68.54c56.45,-5.89 98.96,6.85 155.47,-22.08 2.51,1.98 5.08,3.74 7.73,5.4 12.91,34.18 51.01,51.43 85.79,58.84 80.3,17.08 184.86,-33.3 237.42,3.25 27.17,18.91 32.57,60.36 25.9,90.34 -12.95,57.97 -58.42,63.12 -63.71,34.68 -3.07,-16.97 10.16,-32.74 27.37,-24.41 6.81,-21.13 -20.07,-29.1 -36.16,-27.09 -35.38,4.44 -46.28,49.56 -25.47,78.45 3.53,4.94 44.77,34.51 48.19,24.73 -9.38,46.89 62.83,107.04 119.49,65.06 36.72,-27.24 46.32,-79.73 26.56,-116.95 125.38,-3.63 110.28,-189.34 -20.92,-183.41 47.87,-87.88 -38.03,-157.23 -133.91,-121.07 35.42,-61.95 34.46,-124.36 -35.1,-135.57 74.04,-74.79 17.85,-189.13 2.25,-251.92 -5.92,-23.85 -7.12,-47.1 -6.35,-70.56 -21.76,8.79 -43.99,15.59 -68.44,18.2 -64.31,6.81 -190.99,-6.77 -235.93,88.38 -34.36,-61.49 -93.35,-41.03 -139.39,13.44 1.1,-102.49 -93.41,-159.46 -159.63,-84.32 -39.33,-125.34 -218.93,-75.92 -179.46,43.11 -41.69,-5.85 -87.77,21.17 -100.78,65.02 -20.04,67.63 61.2,114.83 102.05,89.99 -8,6.53 33.87,35.17 39.73,36.83 34.22,9.63 72.95,-15.94 64.98,-50.8 -3.64,-15.87 -20.32,-38.34 -37.85,-24.69 13.68,13.3 3.49,31.15 -13.55,34.04 -28.36,4.76 -39.44,-39.58 10.79,-71.72 25.9,-16.54 66.68,-25.68 93.74,-6.63 52.31,36.86 40.81,152.4 84.35,221.97 18.87,30.12 48.11,60.04 84.66,60.43 2.44,1.97 5.01,3.77 7.73,5.47 -7.87,63 18.66,98.56 32.45,153.59zm-2799.35 -91.36c-91.44,31.78 -125.06,-73.56 -77.54,-110.74 51.22,-31.96 138.71,35.73 77.54,110.74zm378.11 -397.76c-30.09,-17.08 -66.68,-20.96 -102.06,-16.58 0.71,-45.62 22.75,-89.08 70.87,-91.51 54.05,-2.79 83.26,61.13 31.19,108.09zm-972.19 550.51c18.77,-44.35 67.17,-50.2 110.25,-35.21 -16.23,31.68 -25.09,67.38 -19.37,101.53 -61.95,32.81 -111.97,-16.54 -90.88,-66.32zm1080.49 -453.46c-12.91,11.15 -32.77,9.7 -48.61,11.6 4.87,-31.89 -10.87,-65.19 -32.74,-87.84 65.86,-42.97 129.54,34.75 81.35,76.24zm-979.27 552.24c13.75,28.29 39.68,54.5 71.33,60.81 -7.27,14.22 -12.7,33.38 -27.55,41.7 -55.36,30.98 -106.9,-55.21 -43.78,-102.51zm630.37 -367.95c9.07,-25.22 11.4,-53.69 8.58,-78.35 -2.79,-24.52 -7.83,-18.17 -4.13,-37.82 10.34,-55.28 49.64,-119.7 108.73,-141.82 -71.69,51.47 -48.44,204.72 -113.18,257.99zm-575.13 223.77c41.03,-47.95 115.01,-62.8 170.46,-53.63 19.76,3.28 12,5.82 34.08,16.83 22.26,11.15 49.81,18.66 76.59,18.77 -72.18,42.61 -208.25,-31.75 -281.13,18.03zm498.79 -182.36c12.7,43.43 -5.71,82.06 -18.59,122.45 -3.81,12.03 0,9.35 -12.59,8.82 -42.37,-1.76 -84.95,2.33 -121.43,-24.48 -90.87,-66.82 -49.95,-136.14 -23.25,-195.65 65.02,-4.69 144.18,-19.4 175.86,88.86zm-251.77 -256.64c58.1,6.14 102.13,-6.63 177.3,26.03 88.55,38.46 144.57,75.53 123.12,166.66 -3.67,15.45 -10.97,31.61 -20.57,44.09 -41.41,-130.03 -189.19,-112.39 -222,-94.79 -27.76,24.84 -94.93,157.59 13.05,241.06 -15.02,4.72 -32.73,6.06 -48.5,4.19 -92.96,-11.04 -108.59,-76.37 -114.44,-172.75 -4.91,-81.74 22.15,-118.82 36.3,-175.51 17.49,-69.88 -15.95,-46.5 55.74,-38.98zm123.68 -23.67c-66,-12.91 -107.91,-1.66 -160.37,-16.79 -61.32,-17.71 -40.15,-32.53 -44.52,31.15 -3.71,54.5 -28.68,89.99 -39.16,156.42 -97.93,-74.83 -19.86,-175.65 -7.52,-270.51 93.35,20.88 214.85,-17.92 251.57,99.73zm124 -16.37c22.93,22.12 43.89,56.58 49.32,94.26 2.5,17.46 5.4,3.67 -52.95,-31.08 -27.91,-16.54 -55.99,-29.21 -85.13,-38.06 20.25,-55.5 39.27,-72.99 88.76,-25.12zm-371.86 223.27c-1.62,30.41 0.56,61.14 6.63,93.03 12.67,66.71 26.6,68.72 11.04,60.36 -33.55,-18.03 -58.74,-49.5 -71.68,-78.56 -28.01,-62.94 -5.08,-74.83 54.01,-74.83zm508.77 -317.36c21.77,3.21 50.35,32.35 49.39,55.6 -0.03,1.13 0.04,2.22 0.21,3.25 -47.23,16.33 -85.79,54.32 -109.85,100.01 -25.61,-82.34 0.67,-167.61 60.25,-158.86zm-528.14 486.38c-51.15,6.95 -100.12,30.16 -131.59,68.93 -0.88,-0.49 -1.9,-0.95 -2.99,-1.3 -22.16,-7.06 -39.8,-43.89 -35.32,-65.41 12.17,-59.02 101.29,-54.54 169.9,-2.22zm430.57 -82.83c2.68,-1.7 5.25,-3.5 7.72,-5.47 36.55,-0.39 65.79,-30.31 84.63,-60.43 43.54,-69.57 32.04,-185.11 84.39,-221.97 40.88,-28.79 116.45,5.43 127.28,46.49 4.44,16.69 -3.14,35.14 -22.75,31.86 -17.04,-2.89 -27.31,-20.74 -13.59,-34.04 -25.11,-19.58 -60.46,38.52 -20.95,67.03 13.44,9.7 32.17,12.94 48.08,8.46 5.89,-1.66 47.77,-30.3 39.73,-36.83 40.88,24.84 122.09,-22.36 102.05,-89.99 -13.01,-43.85 -59.02,-70.87 -100.75,-65.02 39.48,-119.03 -140.16,-168.45 -179.49,-43.11 -66.18,-75.14 -160.73,-18.17 -159.63,84.32 -46.04,-54.47 -104.99,-74.93 -139.39,-13.44 -44.91,-95.15 -171.59,-81.57 -235.9,-88.38 -24.45,-2.61 -46.71,-9.41 -68.47,-18.2 0.81,23.46 -0.43,46.71 -6.35,70.56 -15.6,62.79 -71.76,177.13 2.25,251.92 -69.53,11.21 -70.52,73.62 -35.1,135.57 -95.88,-36.16 -181.78,33.19 -133.88,121.07 -131.19,-5.93 -146.29,179.78 -20.95,183.41 -19.76,37.22 -10.16,89.71 26.6,116.95 56.65,41.98 128.87,-18.17 119.48,-65.06 3.39,9.78 44.63,-19.79 48.23,-24.73 9.63,-13.44 12.98,-32.13 8.46,-48.04 -13.22,-46.92 -79.9,-33.55 -70.13,-3.32 17.22,-8.33 30.45,7.44 27.34,24.41 -3.63,19.58 -23.56,20.36 -37.71,10.48 -34.96,-24.27 -41.06,-107 -0.1,-135.5 52.59,-36.55 157.16,13.83 237.45,-3.25 34.75,-7.41 72.88,-24.66 85.76,-58.84 2.65,-1.66 5.26,-3.42 7.76,-5.4 56.52,28.93 99.03,16.19 155.47,22.08 13.76,-55.03 40.25,-90.59 32.46,-153.59zm1380.19 5653.37c-2377.25,0 -4312.68,-1935.39 -4312.68,-4312.72 0,-2377.26 1935.43,-4312.7 4312.68,-4312.7 2377.34,0 4312.71,1935.44 4312.71,4312.7 0,2377.33 -1935.37,4312.72 -4312.71,4312.72zm0 -8561.67c-2343.28,0 -4248.94,1905.67 -4248.94,4248.95 0,2343.32 1905.66,4248.99 4248.94,4248.99 2343.33,0 4249,-1905.67 4249,-4248.99 0,-2343.28 -1905.67,-4248.95 -4249,-4248.95z"/>
 </g>
</svg>
